<?xml version="1.0" encoding="UTF-8"?>
<svg id="Capa_1" data-name="Capa 1" xmlns="http://www.w3.org/2000/svg" viewBox="0 0 1500 1500">
  <defs>
    <style>
      .cls-1 {
        fill: #020304;
      }

      .cls-2 {
        fill: #cdcdcd;
      }

      .cls-3 {
        fill: #1f6f9f;
      }

      .cls-4 {
        fill: #1e628a;
      }

      .cls-5 {
        fill: #6a8dc8;
      }

      .cls-6 {
        fill: #1bcafb;
      }

      .cls-7 {
        fill: #a2a19f;
      }

      .cls-8 {
        fill: #2684ba;
      }

      .cls-9 {
        fill: #22a4e3;
      }

      .cls-10 {
        fill: #fefefe;
      }

      .cls-11 {
        fill: #f6f9f9;
      }

      .cls-12 {
        fill: #fcfdfd;
      }

      .cls-13 {
        fill: #3d7797;
      }
    </style>
  </defs>
  <path class="cls-11" d="M619.37,1044.71c.25,1.72-2.37,1.06-3.48.98-6.91-.52-16.13-1.8-22.99-3.04-1.77-.32-2.99,1.1-2.52-1.95l28.99,4Z"/>
  <rect class="cls-11" x="531.38" y="1054.7" width="15" height="2"/>
  <path class="cls-11" d="M105.38,733.7c0,2.33-.04,4.67,0,7-4.68,1.76-4.28-7.12,0-7Z"/>
  <path class="cls-11" d="M105.38,744.7c.04,1.39.95,3.18,1,5l-5-1.02c-.53-3.09,1-4.27,4-3.98Z"/>
  <path class="cls-11" d="M664.37,512.71c-.18,3.65-1.38,4.62-4.99,3.99v-3.99s4.99,0,4.99,0Z"/>
  <path class="cls-11" d="M281.38,514.7c-8.43-2.35,2.52-4.38,2.99-3.99.16.13-.09,1.42,0,1.99-.58.32-1.64,1.24-3,2Z"/>
  <path class="cls-11" d="M201.38,902.7l-3.99,1.01-1.01-5.01c1.37,1.16,3.44,2.72,5,4Z"/>
  <path class="cls-11" d="M1351.38,750.7c5.1-.76,4.21,4.3-1,3,.15-.36.93-2.7,1-3Z"/>
  <path class="cls-11" d="M106.38,714.7c-.19,1.72-.97,3.6-1,4-3.63.71-2.51-4.1,1-4Z"/>
  <rect class="cls-11" x="1364.87" y="1051.2" width="2.01" height="5.01" transform="translate(310.62 2418.38) rotate(-89.93)"/>
  <rect class="cls-11" x="1233.87" y="1053.2" width="2.01" height="5.01" transform="translate(177.77 2289.38) rotate(-89.93)"/>
  <path class="cls-11" d="M579.38,1040.7c.71,3.63-4.1,2.51-4-1,1.34.22,2.67.69,4,1Z"/>
  <path class="cls-11" d="M338.38,487.7c.34-.19.76-1.73,1.5-1.99,1.62-.63,2.03,1.03,1.5,2.49-.41,1.13-2.11.2-3.01.51v-1Z"/>
  <rect class="cls-11" x="676.37" y="507.7" width="2" height="4.01" transform="translate(166.14 1185.92) rotate(-89.87)"/>
  <path class="cls-11" d="M107.38,759.7c-4.22.53-1.09-2.78-1-4,1.61.71.83,2.74,1,4Z"/>
  <rect class="cls-11" x="1216.37" y="1051.7" width="2" height="4.01" transform="translate(160.92 2268.69) rotate(-89.87)"/>
  <rect class="cls-11" x="979.38" y="1052.71" width="2.99" height="1.99"/>
  <circle class="cls-11" cx="1276.4" cy="1055.68" r="1.23"/>
  <circle class="cls-11" cx="1284.4" cy="1055.68" r="1.23"/>
  <path class="cls-11" d="M479.38,1022.7c-.14.01-.95,1.39-1.99.99-.11-.57.15-1.88,0-1.99l2,1Z"/>
  <circle class="cls-11" cx="1292.4" cy="1055.68" r="1.23"/>
  <circle class="cls-11" cx="1300.4" cy="1055.68" r="1.23"/>
  <circle class="cls-11" cx="1308.4" cy="1055.68" r="1.23"/>
  <circle class="cls-11" cx="556.4" cy="1055.68" r="1.23"/>
  <circle class="cls-11" cx="1340.4" cy="1055.68" r="1.23"/>
  <circle class="cls-11" cx="1316.4" cy="1055.68" r="1.23"/>
  <path class="cls-11" d="M1395.38,698.7c.8.66,1.67-1.61,2,2-1.92.34-2.32-.09-2-2Z"/>
  <circle class="cls-11" cx="1324.4" cy="1055.68" r="1.23"/>
  <circle class="cls-11" cx="1332.4" cy="1055.68" r="1.23"/>
  <path class="cls-11" d="M1102.38,557.7c3.69.49,1.32,1.24,2,2-1.9.32-2.34-.09-2-2Z"/>
  <circle class="cls-12" cx="215.4" cy="553.68" r="1.23"/>
  <path class="cls-11" d="M114.38,784.7c-.18-.18-1.41.12-1.99,0-.35-.9,1-1.85.99-1.99l1,2Z"/>
  <circle class="cls-11" cx="1268.4" cy="1055.68" r="1.23"/>
  <circle class="cls-11" cx="1260.4" cy="1055.68" r="1.23"/>
  <circle class="cls-11" cx="1252.4" cy="1055.68" r="1.23"/>
  <circle class="cls-11" cx="1244.4" cy="1055.68" r="1.23"/>
  <circle class="cls-11" cx="1228.4" cy="1055.68" r="1.23"/>
  <path class="cls-11" d="M753.37,493.71v.98c-4.16.5-4.16-1.48,0-.98Z"/>
  <path class="cls-11" d="M1088.37,634.71v.98c-4.16.5-4.16-1.48,0-.98Z"/>
  <path class="cls-11" d="M1053.37,642.71c.68.35-.59,1.7-1.99.98-.68-.35.59-1.7,1.99-.98Z"/>
  <path class="cls-11" d="M1096.37,462.71c.68.35-.59,1.7-1.99.98-.68-.35.59-1.7,1.99-.98Z"/>
  <path class="cls-11" d="M1183.38,494.7h-2c.24,0,1.04-2.23,2,0Z"/>
  <path class="cls-11" d="M517.37,1034.71c.68.35-.59,1.7-1.99.98-.68-.35.59-1.7,1.99-.98Z"/>
  <path class="cls-11" d="M688.38,1050.7c.33,0,.68.03,1,0l-.49.97-.51-.97Z"/>
  <rect class="cls-11" x="685.37" y="1047.7" width="2.01" height="12.01" transform="translate(-367.53 1739.76) rotate(-89.98)"/>
  <rect class="cls-11" x="707.38" y="1046.71" width="2.99" height="1.99"/>
  <rect class="cls-11" x="741.38" y="1050.71" width="2.99" height="1.99"/>
  <rect class="cls-11" x="677.38" y="1032.71" width="2.99" height="1.99"/>
  <path class="cls-11" d="M675.38,1054.7c.13.15,4.11-.12,1.99,1.99s-1.84-1.87-1.99-1.99Z"/>
  <circle class="cls-12" cx="865.4" cy="1041.68" r="1.23"/>
  <g>
    <path class="cls-11" d="M1035.38,643.7c.97,1.57,1.76,8.59,2.07,8.93.2.22,5.57.53,5.93,1.08.29.44-.89,2.39-.81,3.46.12,1.73.66,9.95.94,10.39.8,1.28,6.96.29,7.8,2.76.91,2.7-1.94,4.89-1.89,6.87.03.91,5.18,14.13,5.91,17.05.41,1.65-.09,3.71.05,5.45l2-2c4.94,2.23,0,6.63,0,8.5,0,.65,2.09,11,2.47,12.53,1.41,5.69,7.38,8.73,3.53,16.97,3.27,1.08,1.37-4.55,4.38-3.91,1.53.32,5.16,3.81,5.42,5.62.25,1.69-1.44,11.97-3.81,9.29v-5.41c-6.97-2.59-2.95,10.47-3.01,13.92-.12,7.08-2.01,15.61-1.04,23.05.39,2.97,2.57,4.28,2.78,6.06.12,1.07-.56,8.28-.78,9.85-.27,1.91-4.68,8.75-.45,10.54,3.2,1.35,1.59-2.99,4.49-1.99,1.87,4.8-2.48,5.27-2.92,6.62-.67,2.05,1.7,4.49.46,6.39-2.04,3.15-2.62-.55-2.79-.66-3.97-2.35-2.2,2.02-2.79,4.08-3.16,10.93-2.74,14.46-3.99,24.95-.09.71-1.78.54-1.95,1.29-.46,1.99.36,4.45-.05,6.61-.16.84-3.74,2.58-3.93,3.45-.78,3.65-1.29,6.86-2.25,10.54-.55,2.13-3.55,4.81-.49,6,1.49.58,7.44-.64,6.71,3.21-.25,1.31-6.63,1.63-7.4,1.51-.86-.14-.48-1.74-.67-1.89-1.98-1.5-5.33,5.36-5.81,7.52-1.05,4.75-.59,10.51-.12,15.36-1.49,1.34-5.75-.19-5.97.02-.11.11-.04,1.92-.61,2.87-2.16,3.61-2.59,2.87-1.42,8.12-5.09-1.43-5.99,5.9-9.44,9.07-1.9,5.2-7.09,14.9-10.72,19.28-1.44,1.73-4.65,3.07-5.35,4.66s-.2,4.39-.65,4.9c-.3.33-1.93-.13-2.56.29-2.09,1.42.16,6.3-.32,6.78-.19.19-1.53-.23-2.09.13-.99.65-1.14,1.68-2.25,2.05-1.68.57-6.31.69-6.55.92-.39.37-.2,5.26-1.34,6.66-.77.95-5.31,2.1-6.45,3.53-1.44,1.82-.95,5.13-1.43,5.59-.25.25-5.76.73-6.65,2.34-.78,1.42.22,8.75-1.25,9.78-.9.63-5.34-1.65-5.96-.99-.25.27.53,3.49-.97,4.6-.43.31-5.04-.31-7.21.51-.29.11-4.59,3.71-4.7,4-.7,1.8,2.94,4,2.89,6.45-.1,4.85-7.02-.31-9.52,2.43,2.26-7.65-9.54,1.62-1.49,1.03-3.09,3.97-12.73.17-13,7.99,3.76-.58,3.22.59,3.01,4,1.98.58,2.85-2.27,4.47-2,1.04.17,2.36,2.37.56,3.54-3.43,2.21-15.1-1.61-17.03.48-1.77,1.92,4.17,2.27,1.99,3.98-.13.1-2.8.19-3.36.05-2.66-.66.82-8.54-2.62-6.02-.18.13.28,2.95-3.02,1.99l2,2c-2.6,4.76-3.19-.03-3.54-.07-1.77-.19-6.04,3.14-8.08,4.42-.58.36-.31,1.61-.38,1.64.61-.25,2.1.14,2.99,0,.45,3.08-.91,4.44-3.99,3.99-.26-1,.27-3.69.99-3.99-.66.3-3.78,1.53-4.77,1.92-5.09,2-9.87-.31-8.22,8.09-4.91-.07-9.04,1.42-14.01,1.99-2.96.34-7.15-.7-9.75.3-.31.12-3.49,4.2-4.29,4.99s-2.28.55-2.67.94c-1.08,1.1-.66,5.46-1.85,5.82-5.52,1.69-2.78-6.62-7.97-6.14-1.9.18-1.34,1.87-2.17,2.07-2.56.59-6.1-.56-8.63.04-.46.11-6.91,3.85-7.37,3.96-1.44.35-4.88-.31-5.31.03-2.16,1.68,4.08,2.27,1.99,3.99-.31.25-7.68.25-7.99,0-2.1-1.73,4.12-2.28,1.99-3.99-2-1.61-3.3,1.89-3.67,1.98-4.51,1.02-11.98-.73-16.88-.03-2.41.34-3.78,2.04-5.93,2.15-3.04.16-6-2.08-9.51-.09-2.63-4.89,1.71-3.84,2.07-6.47.76-5.62-2.43-4.91-2.07-9.53,2.68-1.15,1.45,1.69,2.5,2.01,2.02.61,1.23-3.35,4.5-2.01-.64,1.35-3.48,12.54-3,12.99,86.32-3.49,167.36-48.63,215.81-119.68,47.53-69.69,60.87-155.94,36.45-237.08-5.04-16.73-11.82-32.97-20.27-48.23.93-.16,2.4-.71,4-1ZM866.63,1041.68c0-.68-.55-1.23-1.23-1.23s-1.23.55-1.23,1.23.55,1.23,1.23,1.23,1.23-.55,1.23-1.23Z"/>
    <path class="cls-11" d="M609.38,551.7c-.93-2.11,6.84-4.54,7.78-4.72,2.32-.46,9.56.09,10.08-.43.35-.35-.05-2.06,1.21-3.29,1.64-1.62,6.26-2.37,6.75-2.69.85-.56.52-3.49,1.49-4.62,1.69-1.97,8.39-2.67,10.61-3.82,2.35-1.22,3.85-4.99,4.28-5.21.29-.15,4.77-1.85,5.56-2.13,2.88-1.05,11.15-1.63,12.19-4.86.33-1.02-.16-2.93.06-3.22.19-.25,1.53.86,2.45.82,2.02-.08,7.05-.5,8.82-.86.54-.11,2.59-3.2,3.48-3.95.77-.65,2.52-.52,3.06-1.27s0-2.54.19-2.75c.41-.43,5.42,2.5,8.42,1.98,3.36-.57,7.47-1.3,10.88-2,.54-.11.98-1.82,2.56-2.58,3.35-1.62,7.14-.27,6.14-4.41,3.09.74,6.21,1.56,9.45.95,1.51-.29,2.58-1.61,4.09-1.9,5.99-1.16,13.21-.99,18.91-2.09,2.13-.41,3.44-2.49,5.15-2.69,1.85-.22,11.42,1.78,12.4.74.77-.82-2.61-5.82,5.31-3.99.82.19.27,1.81,2.12,2.06,5.38.7,23.75.7,29.13,0,1.85-.24,1.31-1.86,2.12-2.06,7.1-1.71,5.89,3.74,6.92,4.04,2.8.82,7.8-.77,10.72-.68,2.03.06,4.78.59,6.89.9,7.04,1.03,14.38,4.37,21.33,5.66,3.31.61,7.12-1.03,8.83-.71,1.47.28,8.74,6.62,9.31,6.75,3.74.79,10.6.24,14.68.07,2.61,5.65,2.01,2.92,5.89,3.98.33.09,3.13,2.79,5.55,3.65,2.74.98,8.27,1.45,10.91,2.64.48.22,1.83,2.86,2.62,3.3,5.92,3.31,10.59,3.11,14.93,8.09,2.8,3.21,11.17,2.54,14.03,4.22,1.24.73,1.95,3.72,3.27,5.02,3.07,3.02,10.56,4.03,11.44,9.03,2.46.97,1.69-1.73,2.61-2.01,4.34-1.31,3.59,3.54,5.86,3.01,1.37-.32.7-3.98,3.51-2.99,1.47,3.22-1.84,4.15-1.96,4.68-1.54,6.7,1.94,5.64,6.18,7.41,1.34.56.17,3.11,3.78.9-1.77,6.3,3.53,5.85,6.07,8.43,2.37,2.41,6.29,7.77,8.38,10.3s7.96,3.49,8.47,4.42c.45.81-1.69,4.49-.9,5.86.07.11,1.38-.77,2.65-.23,8.19,3.52,6.01,6.45,10.31,11.71,2.32,2.84,5.89,1.45,5.03,5.51-1.32.14-2.68.87-4,1-16.21-21.06-35.95-41.37-57.69-56.81-3.66-2.6-10.27-7.99-14.31-8.19-.01-.8.33-1.6-.65-2.07-26.14-16.26-54.28-27.61-84.34-34.44-80.01-18.18-159.89-2.61-226.01,45.51-5.14-.74-10.11.8-15,1Z"/>
    <path class="cls-11" d="M1116.38,567.7c.63-3.08,5.4-1.5,5.95-2.06.49-.49-.83-5.01,2.56-4.99,1.47.01,11.01,9.57,11.73,11.3,1.29,3.07.13,5.98.87,8.13s3.85.22,4.63,4.32c.46,2.4.7,16.11-.18,17.36-1,1.42-3.98.92-5.57.94,4.8-14.71-9.89-26.94-20-35Z"/>
    <path class="cls-11" d="M1063.38,478.7c2.86-1.41,9.65,3.65,10.04,5.5.83,3.96-3.71,9.31-8.04,8.5,1.11-1.83,1.51-4.06,4-5.5l-2.99-1.48,2.99-2c-3.77.46-2.7-3.8-6.99-1.01-.25-1.47.79-2.65.99-4Z"/>
    <path class="cls-12" d="M1206.38,532.7c-.55,3.24,1.14,1.54,3,2,1.15.29,1.92.56,3,1-.41,1.09-.41,3.75-1.67,4.04-8.01,1.86-3.86-2.75-6.32-5.56-1.05-1.2-6.53-3.12-8.44-3.49l1.42-2.99c2.97,1.7,6,3.25,9,5Z"/>
    <path class="cls-11" d="M1058.38,535.7c.17,6.67-.42,3.33-.98,5.68-1.06,4.39,2.87,7.01,1.98,11.32-7.74,1.3-1.36-5.81-8.99-7,5.2-2.6,5.79-5,8-10Z"/>
    <rect class="cls-11" x="1071.38" y="765.7" width="2" height="31"/>
    <path class="cls-11" d="M1135.38,604.7c4.38-1.33,3.3,4.65,3.52,7.01-1.16,1.78-3.17-.1-4.81.16-.32.05-5.4,1.72-5.71,1.83.64-3.76,5.19-5.76,7-9Z"/>
    <path class="cls-11" d="M1099.38,557.7c-.59-.11-7.47-2.92-7.83-3.18-.53-.37-.03-1.67-.17-1.82,4.93-3.56,8.98-1.15,8,5Z"/>
    <path class="cls-12" d="M1193.38,525.7c-1.93.3.15,6.29-2.49,4.99-1.81-.89-3.98-6.74-3.51-8.99,2.97,1.53,4.63,3.26,6,4Z"/>
    <path class="cls-12" d="M486.38,564.7c.83-3.76,1.34-8.36,6-6.99l-2,5.99c-1.15.22-2.57.71-4,1Z"/>
    <path class="cls-11" d="M508.38,560.7c-1.54.23-4.37,1.57-7,2-.25-3.67,5.04-4.06,7-2Z"/>
    <path class="cls-11" d="M1083.38,549.7c2.12-.94,3.86-.71,5.99.01v.97s-1.99,1.02-1.99,1.02c-2.89-.84-3.38-1.77-4-2Z"/>
    <path class="cls-11" d="M1297.38,634.7c-.15-.23.39-1.47-.13-1.85-.91-.66-3.18.75-2.87-1.14,4.5-.14,5.64-1.09,5,3.99-1.21-.19-1.17.28-2-1Z"/>
    <rect class="cls-11" x="1025.87" y="500.2" width="5.01" height="2.01" transform="translate(526 1529.01) rotate(-89.93)"/>
    <path class="cls-11" d="M1311.38,715.7c-1.08,1.92-5.05-.82-5.03-1.64.02-.68,1.04-1.21,1.03-1.36,2.09.39,2.77,1.83,4,3Z"/>
    <path class="cls-11" d="M1059.38,477.7c1.93-1.91,4.07-3.76,4,0l-2.51,2c-.62.25-.78-1.57-1.49-2Z"/>
    <path class="cls-11" d="M460.38,570.7c-3.25-4.06,3.15-4.86,2,0-.56.16-1.45-.17-2,0Z"/>
    <rect class="cls-11" x="1031.38" y="492.71" width="1.99" height="2.99"/>
    <circle class="cls-11" cx="620.4" cy="541.68" r="1.23"/>
    <circle class="cls-11" cx="1285.4" cy="698.68" r="1.23"/>
    <path class="cls-11" d="M1041.38,642.7c.61,2.97-2.55,3.13-2,0,.62-.12,1.38.12,2,0Z"/>
    <path class="cls-11" d="M589.38,551.7l-2,1v-1.99c1.06-.4,1.89.99,2,.99Z"/>
    <path class="cls-11" d="M1289.38,632.7c.12-.01.94-1.39,1.99-.99.11.58-.16,1.86,0,1.99l-2-1Z"/>
    <path class="cls-11" d="M593.37,549.71v.98c-4.16.5-4.16-1.48,0-.98Z"/>
    <path class="cls-11" d="M712.37,500.71c.68.35-.59,1.7-1.99.98-.68-.35.59-1.7,1.99-.98Z"/>
    <g>
      <path class="cls-7" d="M338.38,487.7v1c-5.41,1.81-18.96,12.16-24.44,16.02-89.8,63.29-198.96,167.84-162.3,291.22.75,2.54,2.01,6.92,3.74,8.76-.63,2.39,1.87,1.85,2,2,.24.27-1.01,1.68-1,2,.71,15.85,30.91,54.66,42,67,1.12,1.24,2.08,2.97,4,5,5.15,5.43,10.53,10.09,16,15,2.06,1.85,4.15,3.41,6,5,4.38,3.77,8.54,7.28,13,11,.77.64,1,2.31,3,2,5.36,6.79,27.32,19.78,35.7,24.8,14.23,8.53,28.29,14.85,43.3,22.2.67.33,1.32.67,2,1,34.69,16.81,66.15,28.41,103,40,.68.21,1.33.79,2,1,7.03,2.18,13.98,3.98,21,6,.4.12,1.09.74,2,1,38.64,11.01,74.52,18.98,114,26v2c-25.6-3.81-50.86-6.95-76-13-.57-.14-1.29-.71-3-1s-2.58-1.26-5-1l-2-1c-.62-.45-12.44-1.68-15.19-2.31-30.25-6.96-62.99-16.74-90.58-26.61-62.8-22.45-118.39-47.57-170.23-90.08-1.56-1.28-3.63-2.84-5-4-31.39-26.58-61.92-63.59-78.22-101.28-.79-1.82-3.31-12.25-3.78-12.72l-1-2c-.12-2.03-3.07-8.03-3.71-10.79-.9-3.89-1.76-8.26-2.29-12.21-.17-1.26.61-3.29-1-4,.14-1.94.05-4.05,0-6-.05-1.82-.96-3.61-1-5s.02-2.67,0-4c-.04-2.33,0-4.67,0-7-.01-4.82-.37-10.29,0-15,.03-.4.81-2.28,1-4,7.48-66.29,61.67-123.19,113-161,.39-.29,1.27-.47,2-1,19.02-13.87,39.43-26.56,60-38,1.36-.76,2.42-1.68,3-2,9.78-5.34,22.01-11.77,32.75-16.75,6.03-2.8,15.93-5.29,21.25-8.25Z"/>
      <path class="cls-2" d="M563.38,1035.7c2.9.52,4.67,1.61,6.57,1.94,5.13.89,11.19,1.22,16.44,2.07.52,3.1-.88,1.53-2,2l-2-1c-.26-.24-2.2.19-3,0-1.33-.31-2.66-.78-4-1-3.96-.65-8.06-1.41-12-2v-2Z"/>
      <rect class="cls-11" x="501.38" y="748.7" width="2" height="16"/>
      <rect class="cls-11" x="501.38" y="781.7" width="2" height="14"/>
      <path class="cls-11" d="M224.38,895.7c.16-.12-.1-4.09,1.99-1.99s-1.87,1.84-1.99,1.99c-.33.44.24,3.9,0,5-1.85-1.59-3.94-3.15-6-5,1.26-.26,5.5.37,6,0Z"/>
      <path class="cls-11" d="M198.38,875.7c3.84-2.92,3.83,1.58,4,5-1.92-2.03-2.88-3.76-4-5Z"/>
      <rect class="cls-11" x="517.37" y="872.7" width="6.01" height="2.01" transform="translate(-353.74 1393.38) rotate(-89.95)"/>
      <rect class="cls-11" x="514.37" y="861.7" width="4.01" height="2" transform="translate(-347.49 1377.12) rotate(-89.87)"/>
      <path class="cls-11" d="M319.38,960.7c1.65-5.13,4.52-3.64,2,1-.68-.33-1.33-.67-2-1Z"/>
      <rect class="cls-11" x="502.37" y="738.7" width="4.01" height="2" transform="translate(-236.47 1242.4) rotate(-89.87)"/>
      <path class="cls-11" d="M424.38,1001.7c-.46-5.22,2.93-3.95,2,1-.67-.21-1.32-.79-2-1Z"/>
      <path class="cls-12" d="M219.38,553.7l-.99-.5c-.55-3.66,1.64-3.45,2.99-.5-.73.53-1.61.71-2,1Z"/>
      <path class="cls-11" d="M240.38,913.7c-2,.31-2.23-1.36-3-2,2.03-3.24,2.44,1.3,3,2Z"/>
      <path class="cls-11" d="M447.38,1008.7c-.29-3.68,2.85-2.74,2,1-.91-.26-1.6-.88-2-1Z"/>
      <path class="cls-11" d="M487.38,1024.7c-1.91,1.71-3.52,1.63-3-1,1.71.29,2.43.86,3,1Z"/>
      <path class="cls-11" d="M155.38,804.7c.12.13,1.86,1.89,2,2,.27.22,1.78-.25,1.99,0,1.47,1.74-1.23,2.47-2.99,2-.01-.32,1.24-1.73,1-2-.13-.15-2.63.39-2-2Z"/>
      <path class="cls-11" d="M584.38,1041.7c-.3.12-.73,1.41-1.99.99-.12-.58.17-1.83,0-1.99l2,1Z"/>
      <circle class="cls-11" cx="175.4" cy="649.68" r="1.23"/>
      <path class="cls-11" d="M170.37,830.71c1.14,1.16-.43,3.22-1.99.49-.13-.87,1.92-.56,1.99-.49Z"/>
      <path class="cls-11" d="M515.88,851.7c.65.33.65.67,0,1v-1Z"/>
      <path class="cls-11" d="M457.88,566.7c.65.33.65.67,0,1v-1Z"/>
    </g>
    <g>
      <path class="cls-7" d="M961.38,444.7c-1.9-.17-6.28.46-7-1.99,3.49.9,7.05-.32,10.39.04,25.31,2.73,51.22,7.06,75.61,11.95.23.05,1.57.71,3,1,7.79,1.57,36.96,9.48,42,9l2,1c.07.08,1.55.07,2,0l2,1c1.21,1.63,33.64,8.62,39.16,10.34,9.88,3.07,43.84,17.76,50.84,17.66h2c.2.46-.42,1.38.59,2.08,2.62,1.82,13.08,4.9,17.09,6.74,80.23,36.76,171.85,99.81,192.56,190.45.22.96,1.27,4.33,1.76,4.73-.32,1.91.08,2.34,2,2,.52,5.8,2.91,18.32-.29,22.71-.27.37-7.31,4.65-7.76,4.78-.69.2-12.37-1.32-14.34-1.59-5.99-.81-18.64-5.48-23.57.64-6.45,8,1.86,15.2-.04,23.46-.07.3-.85,2.64-1,3-1.92,4.73-5.88,8.77-11,10l-2.06-11.26c-4.5-6.45-8.33-14.28-12.16-21.05-.5-.89-.99-1.17-1.78-1.69.28-1.75-.22-2.37-2-2-2.08-3.81-6.81-8.98-10-12-1.23-1.17-1.91-2.61-4-3-.4-4.89-3.95-4.65-7.01-7.49-3.43-3.18-6.85-6.72-9.99-9.51-.88-.78-1.82-1.94-3-3-17.11-15.29-53.7-44.78-59.16-67.34-1.12-4.62-2.39-11.43,3.9-12.5,7.32-1.25,23.05,8.85,30.72,11.88,4.65,1.84,22.84,8.31,26.54,7.96l2,1c.26.21,4.88.17,6,1,.83,1.28.79.81,2,1,8.03,1.27,17.12,4.25,25.44,2.94,3.42-.54,5.21-2.53,5.56-5.94l-1-2c.04-2.04-5.37-8.56-7.01-10.5-22.17-26.27-60.18-54.16-89.04-71.94-6.34-3.91-14.23-9.84-20.95-12.56-1.08-.44-1.85-.71-3-1-.36-1.91-2.15-1.5-3-2-3-1.75-6.03-3.3-9-5-1.67-.95-2.8-1.35-4-2-1.37-.74-3.03-2.47-6-4-55.9-28.77-116.98-50.64-179-66-.91-.23-1.9-.73-3-1-13.88-3.38-28.11-5.65-42-9-.25-.99-1.16-.92-2-1Z"/>
      <path class="cls-11" d="M1008.38,455.7c.81,5.27-3.35,3.25-3-1,1.1.27,2.09.77,3,1Z"/>
      <path class="cls-11" d="M1290.38,695.7l-.5.99c-3.51.68-2.44-1.03-2.5-3.99,1.18,1.06,2.12,2.22,3,3Z"/>
      <path class="cls-11" d="M1040.38,454.7c1.91-1.71,3.52-1.63,3,1-1.43-.29-2.77-.95-3-1Z"/>
      <path class="cls-11" d="M1089.38,465.7c.11-.02,1.31-1.66,1.99-.99.23.22-.23,1.68,0,1.99l-2-1Z"/>
      <path class="cls-11" d="M1330.38,632.7c-3.93.4-1.01-1.47-1-2l1,2Z"/>
      <path class="cls-11" d="M1321.38,727.7c1.78-.37,2.28.25,2,2-.27-.18-1.48.33-1.91-.1-.41-.41.08-1.59-.09-1.9Z"/>
      <path class="cls-11" d="M1085.38,464.7c.11-.01,1.36-1.62,1.99-.99.23.22-.22,1.73,0,1.99l-2-1Z"/>
      <path class="cls-11" d="M963.38,445.7c-1.66,1.76-2.33,1.32-2-1,.84.08,1.75.01,2,1Z"/>
      <path class="cls-10" d="M1209.38,534.7c-1.86-.46-3.55,1.24-3-2,.85.5,2.64.09,3,2Z"/>
    </g>
    <g>
      <path class="cls-7" d="M1059.38,477.7c.71.43.87,2.25,1.49,2l2.51-2c0,.33.05.68,0,1-.2,1.35-1.25,2.53-.99,4,4.29-2.79,3.22,1.47,6.99,1.01l-2.99,2,2.99,1.48c-2.49,1.44-2.88,3.68-4,5.5-.45.74-.66,1.35-1,2-3.71,7.03-5.01,14.82-8.8,20.7-3,4.64-8.95,7.1-8.2,13.3.45.46,7.68-.38,9.44-.06,1.25.23-.06,3.58,1.57,4.06,0,1-.03,2,0,3-2.21,5-2.8,7.4-8,10-.63-.1-1.38.11-2,0l-5-5c-.09-.64.07-1.35,0-2-.34-2.96-1.01-2.24-4-3,.79-.77,2.08-2.66,2.24-2.73,1.33-.56,3.52-.08,3.76-.27.36-.28-1.07-3.35-1.07-4.53,0-4.58,1.6-10.46,1.16-15.01-.29-3.05-6.1-5.59-8.1-7.46,3.77-5.54,5.6-12.53,9.59-17.91,3.24-4.37,7.47-6.63,11.41-10.09.29.13.77-.14,1,0Z"/>
      <path class="cls-7" d="M1011.38,538.7c-.85,1.92-2.52,4.26-1.57,6.01.33.61,8.54,6.66,9.31,6.85,2.13.52,8.25-5.16,11.25-4.86-1.33,2.21-2.47,3.16-3,6-3.41.83-1.82,1.91-4.01,3.47-3.68,2.62-10.67,4.76-11.78,9.25-.55,2.22.74,7.72-3.03,5.01-.47-.34.46-2.15-1.17-1.72l-1,2.99c-.59-3.75-5.87-1.14-3.02-6.98l-2.99,2.99c0-.33-.02-.67,0-1,.07-1.32-.03-2.67-.01-3.99-2.12.03.35,3.45-2.99.99.02-.33-.06-.69,0-1,1.06-5.85,4.63-15.45,8.56-19.98.78-.9,2.5-.68,3.18-1.33s-.31-3.28,2.26-2.69Z"/>
      <path class="cls-11" d="M1058.38,477.7c-3.94,3.45-8.17,5.71-11.41,10.09-3.99,5.39-5.82,12.37-9.59,17.91-4.33,6.37-7.51,11.49-15.99,8-.63.66,3.33,8.19,2.57,11.04-.81,3.03-10.51,9.3-12.58,13.96-2.57-.59-1.59,2.05-2.26,2.69s-2.4.43-3.18,1.33c-3.93,4.53-7.5,14.13-8.56,19.98-3.12.9-2.23-4.1-1.94-5.44,1.81-8.54,4.08-9.64,7.9-15.32,1.23-1.83,1.63-5.17,2.55-6.23,1.17-1.34,5.53-1.41,6.86-2.9s.27-3.7.66-4.08c.26-.25,2.44.24,3.7-.32.28-.12,4.18-4.11,4.25-4.41.93-3.8-1.77-2.72-2.05-4.73s-.26-6.4,1-8.15c2.09-2.89,3.74.07,5.69.29,2.23.25,5.81-1.14,7.04-3.05.66-1.03,2.02-6.3,2.67-7.35.71-1.16,7.16-8.02,7.37-8.58.92-2.55.09-5.39,1.67-8.4,2.47-4.69,7.8-2.85,8.52-3.47,1.22-1.07-1.18-5.6,5.12-2.86Z"/>
      <path class="cls-11" d="M1039.38,535.7c2.99.76,3.66.04,4,3-8.42-.53-7.77,10.32-11.44,13.08-1.87,1.41-3.13.57-4.56.92-.17.93.26,3.78,0,4-.38.33-2.96-.48-3.86.12-.57.38-.67,3.81-2.17,5.35-1.32,1.37-5.13,1.9-5.74,2.76-.87,1.22-.9,7.36-1.28,7.72-.48.46-12.38.14-13.32-.18-2.9-1-.67-3-.63-4.76l2.99-2.99c-2.85,5.85,2.43,3.24,3.02,6.98l1-2.99c1.63-.43.7,1.38,1.17,1.72,3.77,2.71,2.49-2.78,3.03-5.01,1.11-4.49,8.1-6.63,11.78-9.25,2.19-1.56.6-2.64,4.01-3.47.53-2.84,1.67-3.79,3-6,2.33-3.86,5.78-7.85,9-11Z"/>
      <path class="cls-11" d="M1064.38,494.7c3.71,3.64-.9,6.3-.98,6.68-.41,1.84.63,4.99-.46,6.4-.81,1.05-3.24.36-3.6,1.56-.74,2.42.37,9,.04,9.32-.15.15-1.95,0-2.88.6-2.41,1.54-4.31,4.59-7.1,5.45l.48,1.99c4.86,1.35,6.3-3.28,8.55-1.56,2.72,2.09-.05,6.52-.05,7.55-1.63-.49-.32-3.83-1.57-4.06-1.75-.32-8.98.52-9.44.06-.75-6.2,5.2-8.66,8.2-13.3,3.8-5.88,5.1-13.67,8.8-20.7Z"/>
      <path class="cls-11" d="M1048.38,545.7c-.09-.02-.49.74-1.72.38-4.22-1.24-2.83-2.11-3.28-5.38l5,5Z"/>
      <path class="cls-11" d="M1000.38,566.7c-3.46.29-3.16.22-3-3,3.34,2.45.87-.97,2.99-.99-.02,1.32.08,2.67.01,3.99Z"/>
      <path class="cls-2" d="M1037.38,505.7c2,1.87,7.81,4.41,8.1,7.46.44,4.55-1.15,10.43-1.16,15.01,0,1.18,1.42,4.24,1.07,4.53-.24.19-2.44-.29-3.76.27-.16.07-1.46,1.97-2.24,2.73-3.22,3.15-6.67,7.14-9,11-3-.3-9.12,5.38-11.25,4.86-.77-.19-8.98-6.25-9.31-6.85-.96-1.75.71-4.08,1.57-6.01,2.07-4.66,11.77-10.93,12.58-13.96.76-2.84-3.19-10.38-2.57-11.04,8.48,3.49,11.67-1.63,15.99-8Z"/>
    </g>
    <g>
      <path class="cls-12" d="M1013.37,755.71h-1.99v2.99h1.99v-2.99ZM1007.63,795.68c0-.68-.55-1.23-1.23-1.23s-1.23.55-1.23,1.23.55,1.23,1.23,1.23,1.23-.55,1.23-1.23ZM982.37,832.71h-2.99s0,3.99,0,3.99c2.36.74,2.74-1.82,2.99-3.99ZM655.37,870.7v2s4.01,0,4.01,0v-2s-4.01,0-4.01,0ZM963.38,870.7h-4v4h4v-4ZM933.63,875.68c0-.68-.55-1.23-1.23-1.23s-1.23.55-1.23,1.23.55,1.23,1.23,1.23,1.23-.55,1.23-1.23ZM823.37,899.7c-1.14-3.05-9.31-23.61-10.56-23.97-1.36-.4-2,.34-2.98.93-1.18.71-14.97,13.69-15.3,14.7-.25.77-.17,1.56-.15,2.34l29,6ZM788.37,929.7l-22.62-45.94-39.37,34.45,61.99,11.49ZM835.36,898.7l-36.98,16.49,40.99,24.51-4.01-40.99ZM812.38,932.7l-49.02,7.52,44.01,40.48,5.01-48ZM735.37,940.7v2s4.01,0,4.01,0v-2s-4.01,0-4.01,0ZM908.88,956.7v1c.65-.33.65-.67,0-1ZM835.38,959.71l-18.99-2.01,10.51,17.99c1.67.42,1.98-1.4,2.54-2.45.85-1.59,6.37-12.93,5.95-13.54ZM852.37,988.7v2s4.01,0,4.01,0v-2s-4.01,0-4.01,0ZM828.63,1005.68c0-.68-.55-1.23-1.23-1.23s-1.23.55-1.23,1.23.55,1.23,1.23,1.23,1.23-.55,1.23-1.23ZM680.37,1032.71h-2.99v1.99h2.99v-1.99ZM710.37,1046.71h-2.99v1.99h2.99v-1.99ZM744.37,1050.71h-2.99v1.99h2.99v-1.99ZM680.37,1052.7v2.01s12.01,0,12.01,0v-2.01s-12.01,0-12.01,0Z"/>
      <path class="cls-11" d="M550.38,631.7c-45.79,75.92-51.76,171.26-16.18,252.68,43.38,99.25,143.01,166.05,252.17,165.32-8.34-21.51-35.1-21.01-52.97-27.52-6.39-2.32-11.81-6.91-18.02-9.48-2.26-2.51-5.49-5.85-8-8,7.84-1.82,8.51,3.87,13.51,7.99,2.33.44,1.25-.9,1.47-2.25.76-4.53,2.13,1.74,2.26,1.94.68,1.05,3.94,1.69,5.18,3.39,1.01,1.38,1.02,4.7,2.22,4.98,1.87.43,4.6-.51,6.67-.03.73.17.62,1.77,1.37,1.95,5.81,1.42,10.07-2.39,15.31-1.97-.09.95-1.4,3.64-1,3.99h4.99c.45-3.76-1-3.76-4-3.99.7-7.14-2.51-2.49-4.87-4.13-.78-.54-2.69-8.65-3.36-9.63-1.82-2.65-7.91.82-5.74-9.56.06-.27,3.87-2.18,1.97-4.68-1.7-2.23-2.14,3.1-2.98,1.99-2.41-4.82,1.68-12.73-5.01-13.99l-1.49,4.99c-2.12-1.23-1.91-4.67-3.04-5.97s-3.91-.99-4.42-2.64c-.24-.75.64-3.93,1.1-4.24.49-.32,6.13.32,3.84-2.13-1.15-1.23-7.66-1.76-7.95-2.06-.56-.57.47-5.37-.09-5.92-.21-.21-2.92.19-4.53-.96s-2.21-5.5-4.01-5.92c-1.07-.25-6.54,1.81-7.42.84-.4-.44,1.56-4.51-3.75-5.72-4.54-1.04-6.33.09-10.24,1.71l.99-3.99c-2.56-.36-5.94.54-8.31-.03-.74-.18-.62-1.74-1.38-1.95-5.82-1.61-3.81,2.52-5.23,3.52-2.11,1.49-10.03-.98-8.13,4.89.34,1.06,3.24.16,3.94,2.17s-.54,5.97.25,7.25,6.61.9,6.85,1.15c.31.32-.43,3.43.49,5.01,1.17,2,9.69,1.8,8.58,10.36-.09.67-1.97.74-2.07,1.11-.76,2.78,1.34,2,1.99,3.27.37.74-.31,2.65.11,3.15.33.39,5.7.29,6.7,1.31.88.89.53,4.46,1.45,5.55,1.39,1.64,7.9.94,6.77,8.23-5.1-4.54-10.23-8.65-15-14-3.18-3.56-7.16-8.22-10-12-7.48-9.96-14.33-22.81-20-34-.57-1.13-.22-3.17-2-4v-1c.54-.21.6-1.02,2.18-.84,5.55.65,15.23,5.21,21.4,6.76,17.59,4.42,27.97,2.72,42.42,16.08,6.83,6.32,14.32,18.31,18,27,6.65,15.67,8.14,35.49,29.99,37.99.79-5.91-5.51-8.46-8.52-11.97-6.05-7.06-15.32-18.26-17.47-27.03-.91-3.71-1.38-9.72-1-13.51.26-2.69,2.17-5.6,1.83-7.77-.41-2.65-4.62-6.16-6.83-7.72-.42-.56-.59-1.52-1-2,4.55-5.79,3.78.65,4.05.9.69.63,4.59-.29,4.95.1.24.26-.28,3.06.02,4.29.17.7,1.53.64,1.85,1.53,1.02,2.82,3.12,7.06,1.2,9.59-.82,1.09-2.85.05-3.15,1.15-2.34,8.63,3.57,5.96,4.08,6.43.42.39-.43,6.61,0,8.34.47,1.89.66-.41,1.08,5.06.6,7.84,2.97,4.52,5.01,7.01s-.42,7.33,5.9,4.61c-3.68,8.64-.4,5.16,3.43,9.09,1.36,1.39,6.51,9.49,7.63,10.38.75.59,2.45.31,2.8.67.31.32.37,5.66.16,5.87-.3.29-3.07-.21-4.02,0-1.92,5.59,5.76,4.64,7.7,8.29.6,1.13-.03,2.94.47,3.53.42.5,2.68.12,3.39,1.1,1.16,1.57.15,5.97.45,8.08-4.2.16-8.32-1.68-12.57-1.09-1.92.27-1.36,2.08-2,2.11-1.57.07-5.33-1.85-7.94-2.02-13.64-.91-24.12-1.17-36.81-4.03-2.62-.59-6.66-1.24-9.98-2.01-.5-.12-6.3-4.16-9.14-4.02-.4.02-.13,3.14-4.84,2.01-.68-.16-4.86-5.81-5.45-5.92-4.91-.93-8.67-1.13-13.54-2.29-.42-.1-6.46-3.59-7.37-4.11-.67-.38-3.83-3.52-4.1-3.58-5.51-1.25-9,2.34-14.27,1.95-.05-5.29,2.58-8.78-5.48-10.03-4.31-.67-.81,2.23-2.01,2.01-2.26-.42-.31-3.81-.51-3.97-.39-.33-4.87,2.02-7.42.1-1.6-1.21,1.01-8.04-4.57-5.09.67-5.24-1.6-1.68-3.05-2.52-.76-.45-4.55-4.85-6.58-5.26-1.18-.24-3.21.93-4.88.86-7.63-.35-4.76-3.34-5.51-4.09-.4-.4-9.93,3.23-8.02-3.32.35-1.2,2.9-.77,3.04-3.13.44-7.58-14.36-6.26-19.01-5.56.18-5.26,10.05-1.54,6.02-7.26-1.44-2.05-5.49-2.45-5.85-2.93s-.11-4.51-2.46-5.47c-4.52-1.87-5.4,1.44-5.73-6.33l-7.99,2c-.33-1.9.44-11.6,0-12-.22-.21-3.02.23-4.28-.2-.33-.11-5.5-3.55-5.71-3.82-1.78-2.29,3.28-1.37,1.99-3.98-8.19,1.36-5.53-4.26-7.5-8-.67-1.28-2.42-1.66-3.45-2.6-.92-.84-1.13-3.82-2.97-2.3-.14.12.16,3.31-2.06,1.87-.07-.04.11-1.12-.38-1.59-.64-.61-5.2-3.84-1.91-4.41,5.65-.98,1.15-2.31.32-3.72-1.07-1.82-1.95-3.71-3.08-5.52-2.33-3.75-.54-1.93-1.45-4.7-.81-2.46-5.26-5.77-5.54-9.04-2.7-1.17-1.55,2.05-2.48,2.01.1-2.58-3.12-1.68-3.48-2.03-.33-.31,1.84-6.65-.16-7.85-1.4-.84-6.78,1.6-5.59-4.48.2-1.01,1.68-1.66,1.76-3.14.03-.62-1.95-.37-2.1-1.14-.26-1.39.81-3.13.68-4.7-.48-5.95-1.48-12.71-8.63-10.67-1-2.55,2.05-5.59,1.78-7.29-.7-4.48-3.88-11.3-5.9-15.87s-.94-3.88-1.9-8.15c-.17-.74-1.78-.61-1.96-1.37-.82-3.41.52-8.88-.07-12.76-.45-2.94-3.3-8.78-3.89-12.1-.42-2.34.14-5.04-.06-7.44-2.67-1.09-1.67,2.05-2.49,2.02-5.51-.18.19-6.82.54-9.48.85-6.38-3.22-12.19-2.09-20.1.32-2.22,1.82-3.51,2-5,1.21-9.72-3.02-16.93-2.02-26.02s1.87-5.21.13-14.99c-.18-1.04-1.42-9.12-1.07-9.44.29-.26,3.12.63,4.52-.99.35-.4,4.12-9.06,4.26-9.74.65-3.21-.39-6.92.24-9.6.2-.85,2.14-.34,2.09-2.13-.09-3.6-2.8-5.57-.9-10.89.46-1.27,2.82-1.87,3.86-4.06,1.96-4.11,5.37-13.56,4.71-17.86-.19-1.26-2.49-2.7-1.77-4.75,12.41,1.91,6.66-9.79,7.96-15.3.31-1.33,4.51-2.22,4.96-2.84.37-.52-1.18-3.53-.96-5.31.36-2.89,5.88-4.83,4.05-9.55,7.15,2.98,3.8-1.61,7.99-4,2.81-1.6,1.83-.06,3,0Z"/>
      <path class="cls-4" d="M583.38,636.7c-.33,0-.67,0-1,0-7.18.08-10.53-1.57-15,5-3.49-2.11-2.79.26-4,1-1.09.66-2.11.05-3.45,2.03-1.47,2.19-5.42,10.38-6.76,13.26-12.7,27.34-17.79,55.32-18.42,85.37-.1,4.6,3.54,10.78-3.39,9.33-1.47,5.64,2.37,5.22,4.09,7.43,2.59,3.33-1.09,5.69-1.11,9.04-.11,13.09,4.76,35.58,7.05,49.03,1.16,6.79,2.56,13.51,3.67,20.3.19,2.26,3.82.74,4.32,1.2,1.31,1.2-2.55,11.13-.12,14.43.99,1.35,3.7.19,4.12.57.31.28-.15,6.28.23,8.27.52,2.72,9.29,27.58,10.33,28.71s2.77.73,3.52,1.68c1.58,2,2.32,9.27,3.7,12.07s4.8,4.75,6.65,7.35c3.31,4.62,8.89,15.16,12.51,18.49,2.61,2.39,6.03,2.24,7.78,3.73,1.05.9,1.75,3.58,3.38,5.12,4.4,4.15,21,17.1,25.99,20.01,3.7,2.16,8.95,3.07,12.79,5.21,3.19,1.77,5.66,5.07,8.71,6.29,3.64,1.45,6.05.49,8.72,1.28,1.94.57,2.58,3.63,4.96,5.04,3.12,1.85,6.63,1.48,9.99,2,3.85.6,4.78,3.31,8.73-2.23,2.84,3.78,6.82,8.44,10,12,.3,1.83,5.04,10.15,6.29,10.69s3.51.14,3.7.31c.4.38-.36,3.64,0,4,.34.34,4.49-.76,5.58.92.92,1.42.09,4.73.45,5.06.32.3,2.29-.31,3.2.05,1.36.53,3.25,1.33,4.78,1.96,6.21,2.57,11.63,7.15,18.02,9.48,17.87,6.51,44.63,6.01,52.97,27.52-109.16.73-208.79-66.06-252.17-165.32-35.58-81.42-29.61-176.76,16.18-252.68,10.63.56,22.86,2.29,33,5ZM567.37,634.71l-3.99,3.98,3.99,1c.28-2.01-2.54.18-2-2.48.21-1.06,2.93.38,2-2.5Z"/>
      <path class="cls-4" d="M1031.38,644.7c8.45,15.26,15.23,31.5,20.27,48.23,24.42,81.14,11.08,167.39-36.45,237.08-48.46,71.05-129.5,116.19-215.81,119.68-.49-.46,2.36-11.64,3-12.99.14-.29.77-.59,1-1,3.19-5.71,9.15-9.82,13-15,.28-.11.7.11,1,0,2.52-.88,4.37-3.45,7-5h2.5c2.61,4.92-3.1,1.08-2.5,4.99,2.39,1.65,10.36-2.59,10.99-1.99.48.45-2,3.34-.04,4.52.55.33,7.35,1.42,8.56,1.47,8.07.31,22.64-.94,30.75-2.21,1.34-.21,2.45-1.57,4.18-1.66,1-.05,3.22,1.24,3.54.89.17-.19-.25-2.69.5-4.01,1.68-2.96,13.99-2.56,17.59-3.43,3.98-.95,8.87-6.57,11.63-7.37,1.81-.52,7.05.06,7.3-.2.35-.37-.76-4.47.93-5.58,2.09-1.37,7.25.85,10.13-2.9.85-1.1.66-3.32,1.49-3.59,2.55-.82,6.23,4.24,10.45,3.05-2.93-4.12-2.62-12.02,2.73-13.76,4.44-1.45,4.6-.04,9.28-3.72,3.96-3.11,6.43-9.7,6.94-10.06,1.03-.73,3.55-.22,5.61-1.39.52-.3,8.2-7.98,8.5-8.5,1.16-2.02.69-5.19,1.91-6.14s3.84,1.5,6.04.13c2.99-1.86,5.17-18.15,12.97-22.08,3.23-1.63,2.59,4.42,6.35,3.42,4.76-1.27.85-4.92.59-7.37-.57-5.37,2.16-4.98,3.95-8.16,1.01-1.78,1.5-5.32,2.61-6.39,1.38-1.33,4.02-.62,5.05-1.95,1.74-2.23,2.63-13.32,5.02-16.98,1.72-2.63,6.44-2.93,7.26-5.74.98-3.37-.33-7.78,2.16-11.59,6.34-9.73,8.38-23.98,12.55-35.71,3.24-9.14,7.35-53.56,6.52-63.55-1.43-17.19-5.52-35.04-6.98-52.02-.34-3.91.88-20.63-1-22-.98-.71-1.98-.43-3.05-.44-.45.45.32,9.65.07,11.56s-1.87,1.31-2.06,2.12c-.6,2.55.56,6.09-.04,8.63-.18.76-1.79.62-1.96,1.37-.35,1.54.46,4.46-.14,5.25-.31.41-1.68-.09-1.88.07,6.69-27.86,4.25-58.4-9-84l1-3c2.7-.42,5.6-.59,8-1Z"/>
      <path class="cls-3" d="M563.38,642.7c8.5,14.39,11.68,30.83,15,47-1.24,2.85-.67-3.06-3-.99-.36.32.83,2.38-.99,1.99.08-1.82-1.5-13.52-2.02-14-.21-.2-2.18.13-2.99,0,1.78,4.08-1.92,6.17-2.09,7.44-.45,3.51,1.27,6.79.91,9.85-.32,2.72-2.89,2.57-3.4,4.61-.68,2.7-.07,5.14-.48,7.55-.46,2.69-3.1,6.83-1.06,9.87.99,1.48,7.07,1.81,4.11,5.68-1.4-1.29-16.1-12.03-16.99-11-1.63,3.72,1.81,5.22,1.92,5.64,1.39,5.45,5.3,12.11,6.08,16.35-4.93,1.02-1.54-3.35-5.03-5.26-.99-.54-1.42-1.17-2.97-.73.92,2.67.74,5.51,1.28,8.21.6,3.02,3.17,9.81,3.54,12.48.17,1.21-1.4,2.1-1.56,3.09-.24,1.56.64,2.66-.27,4.21-.19.33-.76.61-1,1-1.47-1.67-10.14-9.41-12-7.99,6.2,11.9,7.63,25.86,10,38.99-1.53,1.74-1.36,6.46-1.08,8.57.25,1.85,1.86,1.31,2.05,2.12.67,2.86,1.44,12.71,1.97,16.87,1.5,11.92,2.22,23.44,4.12,35.88.65,4.26,6.09,13.16,7.6,16.89.62,1.54,1.49,6.77,4.34,6.67.67,1.67,1.32,3.33,2,5,1.36,3.35-.09,1.83,2.7,5.79.82,1.16,1.18,3.84,1.46,4.07.81.67,3.48-.2,3.85.14.83.76-2.26,5.48,3.99,4.01.99.45.85,1.15,1,2,.04.24-1.96,1.83,1.34,3.66,1.02.56,2.49.13,3.34.67,4.55,2.9-.49,1.81,7.62,3.7,1.55.36,4.01,3.66,8.7,3.98,1.81,3.64,5.87,1.66,7.53,2.88,1.44,1.06,2.6,4.46,4.06,6.02,5.76,6.16,15.46,15.23,23.08,18.92,4.13,2,8.79,1.89,11.68,3.14.76.33.1,4.29,5.13,4.05,1.02-.19.14-2.09.71-2.79.52-.64,1.44-.09,1.81-.23v6s2-1,2-1c5.67,11.19,12.52,24.04,20,34-3.95,5.54-4.88,2.83-8.73,2.23-3.36-.53-6.87-.15-9.99-2-2.38-1.41-3.02-4.47-4.96-5.04-2.67-.79-5.08.17-8.72-1.28-3.05-1.21-5.53-4.51-8.71-6.29-3.85-2.14-9.09-3.05-12.79-5.21-4.99-2.91-21.59-15.85-25.99-20.01-1.63-1.53-2.33-4.22-3.38-5.12-1.75-1.49-5.17-1.34-7.78-3.73-3.62-3.33-9.2-13.87-12.51-18.49-1.85-2.59-5.24-4.47-6.65-7.35s-2.12-10.07-3.7-12.07c-.75-.95-2.48-.56-3.52-1.68s-9.81-25.98-10.33-28.71c-.38-1.99.07-7.99-.23-8.27-.43-.39-3.13.78-4.12-.57-2.43-3.29,1.43-13.22.12-14.43-.5-.46-4.13,1.06-4.32-1.2-1.11-6.8-2.52-13.51-3.67-20.3-2.29-13.44-7.15-35.93-7.05-49.03.03-3.35,3.7-5.71,1.11-9.04-1.72-2.21-5.55-1.78-4.09-7.43,6.92,1.44,3.29-4.73,3.39-9.33.63-30.06,5.72-58.03,18.42-85.37,1.34-2.88,5.29-11.07,6.76-13.26,1.34-1.99,2.36-1.37,3.45-2.03Z"/>
      <path class="cls-8" d="M553.38,754.7c.91-1.55.02-2.65.27-4.21.15-.99,1.73-1.89,1.56-3.09-.38-2.67-2.95-9.45-3.54-12.48-.53-2.71-.36-5.54-1.28-8.21,1.55-.44,1.98.19,2.97.73,3.49,1.91.1,6.29,5.03,5.26.1.54.04,1.41,0,2-.03.44-1.64,1.5-.99,3l1.99-2c2.27,1.8,5.34,9.66,7,13-2.69,2.85,2.5,6.59,2.4,10.14l4.6,4.86c4.65,8.77,11.63,22.03,17,30-.57,4.9-1.31-.63-1.4-.74-.66-.79-2.88-1.91-3.29-2.57-.95-1.53.77-3.76-2.82-4.69-4.97,6.59,1.63,7.62,2.26,9.26.68,1.79.99,6.63,2.61,9.4.63,1.07,4.26,3.37,5.21,4.73.48.69,3.25,5,1.42,5.6-1.42-1.64-2.69-4.43-5.52-5.98l-8.47-11.02c-1.16,21.46,4.14,42.3,9.06,62.95.63.27,1.36-.05,1.93.05,2.09,15.71,24.58,38.04,37,47,.28.2.54.68,1,1,32.73,22.5,77.69,21.19,110,46,.3.23.74.7,1,1,.41.48.58,1.44,1,2,3.14,4.24,5.29,8.78,3.98,14.31-.09.37-3.82,2.63-1.98,6.68-5.16.4-7.26-11.14-8.19-11.82-.76-.56-2.55.17-3.57-.39-2.08-1.14-.82-7.73-6.24-5.79-14.45-13.36-24.83-11.66-42.42-16.08-6.17-1.55-15.84-6.1-21.4-6.76-1.59-.19-1.64.63-2.18.84-.37.14-1.28-.41-1.81.23-.57.69.32,2.6-.71,2.79-5.03.24-4.37-3.72-5.13-4.05-2.89-1.26-7.54-1.14-11.68-3.14-7.62-3.69-17.32-12.76-23.08-18.92-1.46-1.56-2.62-4.96-4.06-6.02-1.66-1.22-5.73.76-7.53-2.88.66.05,1.34,0,2,0,1.99-.02,4,.02,6-.01v-.98c-.66-.06-1.34.04-2-.01.5-2.26-4.31-4-6-4-9.9-9.45-15.68-23.6-20.02-36.48-5.57-16.53-10.77-38.23-11.98-55.52-.25-3.62.71-9.27-.02-12.31-.18-.76-1.79-.63-1.96-1.37-3.12-13.83-5.53-22.22-12.59-35.21-.71-1.32-3.53-6.32-5.43-6.1Z"/>
      <polygon class="cls-2" points="788.37 929.7 726.38 918.21 765.75 883.76 788.37 929.7"/>
      <polygon class="cls-2" points="812.38 932.7 807.37 980.7 763.36 940.21 812.38 932.7"/>
      <path class="cls-9" d="M594.38,814.7c1.83-.6-.94-4.91-1.42-5.6-.95-1.36-4.58-3.66-5.21-4.73-1.62-2.77-1.93-7.61-2.61-9.4-.63-1.64-7.23-2.67-2.26-9.26,3.58.94,1.86,3.16,2.82,4.69.41.66,2.63,1.77,3.29,2.57.09.1.83,5.64,1.4.74,3.45,5.12,11.41,13.56,16,19,5.86,6.95,8.28,9.16,15,15,4.9,4.26,7.68,8.28,14.68,11.82,3.6,1.82,11.06,3.32,13.26,4.74,3.77,2.42,9.45,17.04,14.05,20.45-.05.33.04.67,0,1-1.6,1.1-5.63-.57-7.28-1.22-17.25-6.8-26.45-19.26-39.72-25.78-.99-3.27-1.53-1.84-3.53-3.95-1.66-1.75-10.69-11.76-11.47-12.05-.29-.11-.71.11-1,0-.9-3.16-3.84-5.5-6-8Z"/>
      <polygon class="cls-2" points="835.36 898.7 839.37 939.7 798.38 915.19 835.36 898.7"/>
      <path class="cls-8" d="M567.38,721.7c2.96-3.88-3.12-4.2-4.11-5.68-2.04-3.05.59-7.18,1.06-9.87.42-2.41-.19-4.85.48-7.55.51-2.04,3.08-1.89,3.4-4.61.35-3.06-1.36-6.33-.91-9.85.16-1.27,3.87-3.37,2.09-7.44.81.13,2.78-.2,2.99,0,.52.48,2.09,12.18,2.02,14,1.82.39.63-1.67.99-1.99,2.33-2.06,1.76,3.85,3,.99,2.18,10.63,3.55,19.23,5,30,1.04,7.69,2.14,16.2,4.46,23.04.72,2.11,2.5,3.67,3.18,5.64.08.22.98,5.5-1.63,4.32-6.86-10.12-12.9-22.64-22-31ZM569.88,718.7v1c.65-.33.65-.67,0-1Z"/>
      <path class="cls-8" d="M1017.38,809.7c1.46,2.61,3.71-3.31,5.99-.99,1.87,1.89-1.58,4.19-1.89,4.79-.4.78-.09,2.24-.62,3.17-.38.65-8.27,5.59-2.48,6.03-1.05.95-1.79,3.39-3.01,4.5-3.45,3.15-8.09,5.76-10.99,9.5-.35.02-.74-.08-1,0-4.52,1.35-22.85,14.65-29.33,18.17-9.67,5.26-19.66,9.42-29.67,13.83-3.08-1.55.44-2.01.65-2.32.51-.76.29-1.62.35-1.68,6.33-7.08,18.12-11.24,25-18,.33-.03.68.06,1,0,3.45-.68,14.44-8.15,17.91-10.59,7.85-5.52,15.69-12.33,22.09-19.41-.4,5.06,4.58-.72,4.91-3.41l-.91-.59c.35-.43,1.18-1.91,2-3Z"/>
      <path class="cls-11" d="M1018.38,822.7c.37-.33,3.13-1.03,3.99-2-1.01,7.81-3.68,15.47-6.82,22.67-10,22.94-28.32,41.91-48.17,56.33-16.59,12.04-35.06,21.26-54.01,29.02,1.17,3.64,2.61,8.22,3.01,11.98.17,1.58-.05,3.36,0,5,.03,1,.02,2,0,3-.03,1.89.69,4.91-1,6,.29-4.56-.07-9.3-.13-13.87-2.6-1.57-5.08-.07-7.87-.13-1.48-7.69,3.01-4.04,4-5,1.1-1.06-1.73-8.74-.93-9.91,3.24-1.82,7.09-.53,10.2-1.13.77-.15,2.57-3.52,2.97-3.66,2.99-1.1,4.81,1.33,4.75-2.3-1.66.03-3.34-.01-5,0v-1.99s5,0,5,0c.03.66-.02,1.33,0,2,4.6-.09,5.01-1.89,9.01-2,1.26-2.49-2.04-1.73-2.08-2.56-.03-.71.98-3.28,1.72-3.48,3.6-.98,3.52,1.97,3.87,2.06,4.42,1.27,1.79-6.17,6.25-3.68.33.18-.1,2.58,2.22,1.66,2.05-3.11-1.32-7.92,2.02-9.49,4.53-2.13,8.21,1.97,9.82,1.32.18-.07,1.31-2.37,2.23-3.09,4.05-3.2,8.57-8.46,11.68-10.76,1.96-1.45,7.91-1.6,6.22-3.94-.08-.11-1.71.25-1.98-.65-.37-1.24,2.8-7.01,3.16-7.24,2.51-1.61,3.94.41,4.9,1.2,2.98,2.43,1.81-3.1,3.51-5.31.72-.94,5.94-3.38,6.27-4.24.38-1.02-.69-2.22-.6-3.27.72-8.3,5.1-2.59,6.9-5.11.32-.45,1.87-5.34,1.83-5.94-.12-1.79-2.48-2.61-1.53-4.48,1.19-2.32,7.6-1.9,8.37-5.64.93-4.54-4.54-3.09-4.8-3.34-1.08-1.03,2.59-4.33-2.99-4.01,2.9-3.74,7.54-6.36,10.99-9.5,1.21-1.11,1.96-3.55,3.01-4.5Z"/>
      <path class="cls-11" d="M1022.38,648.7c13.25,25.6,15.69,56.14,9,84-.65.53-1.67,2.2-2,3,1.19-2.95-2.24-2.74-2.11-4.47.06-.79,1.77-6.44,2.19-7.77,2.39-7.57,5.19-20.22,4-29.32-.24-1.85-1.87-1.31-2.06-2.12-1.01-4.3-.77-8.74-2-14-.44-1.87.42-8.89-.02-9.32-7.71-1.37-3.9,2.72-5.1,3.95-.42.43-2.75-.52-2.97.6s-.36,11.07.06,11.46c.36.34,3.66-.35,4.02,0,.83.81-1.25,7.36-2.03,7.99-2.05,1.67-2.2-4.17-3.98-1.99-.33.41.29,4.83-.06,6.45-.38,1.74-1.75,2.8-2.02,5-.28,2.31.94,6.49.52,7.6-.66,1.73-3.75,2.42-4.22,3.21-.52.87.04,2.45-.55,3.43-.45.75-3.74,2.53-3.74,2.89.02,1.8,3.1,4.73,2.05,7.41l-3.99-.99c.13,4.26,5.74.98,4,6.99-6.45-.82-7.71.15-11.59,4.39-.61.67-.41,2.26-1.47,3.07-.75.59-2.44.3-2.81.68-.66.71,1.18,6.4-3.93,3.62-2.96-1.61-3.72-9.02-2.19-11.78.14-.26,4.99.98,5.94-.03.37-.4-.28-3.15.08-4.4.93-3.23,3.31-9.09,3.66-12.19.38-3.39-2.57-8.13-1.67-12.65.24-1.21,5.37-3.31,5.95-6.24.34-1.71.33-7.23.09-9.05s-1.87-1.31-2.06-2.12c-1.55-6.73,2.83-8.77,2.05-13.88-.29-1.88-1.86-1.32-2.05-2.12-.61-2.63.38-6.47-.03-9.31l-2,6.99c-3.05.95-3.81-4.98-2.89-5.93.61-.64,4.42,1.96,2.84-5.51-.45-2.13-2.7-3.84-1.94-6.55.24-.03,1.07-.89,2-1,5.08,14.41,5.79,28.86,6,44-1.63,4.57-1.64,10.87-2,16-.02.33.02.67,0,1-2.37,4.22-3.6,10.17-4,15-.03.33.01.67,0,1l-6,14.99c3.9-.78,5.42-5.31,7-7.99,1.32-2.25,4.2-6.28,5-8,13.77-22.75,17.59-51.81,15.01-78,.98-.24,1.61,1.27,1.99,2Z"/>
      <path class="cls-2" d="M823.37,899.7l-29-6c-.01-.78-.09-1.58.15-2.34.33-1.01,14.12-13.99,15.3-14.7.98-.59,1.62-1.32,2.98-.93,1.26.36,9.43,20.92,10.56,23.97Z"/>
      <path class="cls-11" d="M1029.38,736.7c-.77,2.1-1.14,5.03-2,7-7.57,17.29-19.08,33.34-32,47-.79.83-.9,1.9-1,2-.16.17-.83-.17-1,0-1.81,1.83-4.84,3.38-6,5.99,3.67.85,6.07-2.91,8-3.99,8.14-4.55,16.04-8.96,23.21-15.05,5.18-4.4,8.95-9.33,13.54-14.22.56-.85.27-1.8.25-2.73l4.99-5.99c1.57,8.58-3.33,16.98-4.7,24.63-.21,1.2.91,2.7.78,3.7-.12.85-2.18,1.05-2.93,2.26-4.8,7.79-7.19,14.52-13.14,22.4-.82,1.09-1.65,2.57-2,3-.79.97-2.74,2.61-4,4-6.4,7.08-14.24,13.89-22.09,19.41-3.47,2.44-14.47,9.91-17.91,10.59-.4-5.76,6.21-5.26,9.27-6.05.38-.1,6.18-3.95,6.45-4.23,1.16-1.21.56-3.61,3.28-4.23l-3-3.48c4.39-1.29,3.63,3.44,7.76,1.69.26-.11,3.83-3.72,3.94-3.98.56-1.22-.02-3.13.42-3.64s2.57.16,2.88-.09c1.6-1.28-3.95-2.99-2-4.99.67-.69,3.62,1.11,4.4,1.04.85-.08.76-2,1.6-2.52,1.2-.76,3.09-.18,3.79-.73.77-.59,10.26-13.9,10.92-15.58,1.29-3.31-.36-8.12,6.29-7.21.72-3.07-1.77-3.69-3.05-5.5-.72-1.01-.75-2.9-1.18-3.27-3.41-2.92-8.08.91-10.76,3.38l.97,5.38c-2.27.48-3.62-1.53-5.57-1.95-5.42-1.17-4.3,2.03-6.74,3.63-.87.57-2.52.07-3.37.65-2.42,1.67-4.27,7.24-5.03,7.69-2.43,1.45-8.5,1.37-9.23-1.76-1.58-6.73,3.08-3.41,3.96-4.25.37-.35-.39-5.65-.01-6.01.21-.2,3.95.24,5.74-.32,3.11-.97,2-7.35,2.27-7.68s4.54,2.35,7.66-2.32c.52-.78.13-2.21.68-3.34.16-.33,1.29-.28,1.61-1.13.96-2.47-1.97-3.87,4.04-3.22-.8-1.55-.95-7,.15-7.87.61-.48,2.54.24,3.61-.34,1.66-.9,1.85-5.73,2.46-6.57.2-.28,5.86-2.82,5.84-3.79-.02-1.5-1.79-2.86-1.89-4.09-.08-.88,1.32-2.6,1.78-3.94.34-.97-.24-3.05.09-3.37.2-.2,2.39.19,3.67-.34,2.97-1.23,1.07-6.26,4.3-5.69Z"/>
      <path class="cls-11" d="M594.38,814.7c2.16,2.5,5.1,4.84,6,8-5.22-2.1-5.01-4.53-7.78-5.97-1.34-.7-4.42-.55-5.06-1.26-.36-.4-.09-5.49-2.1-1.99-3.02,5.25-1.98,8.66-2.13,14.79,4.66,4.81,2.72,14.13,4.1,19.74.17.67,1.43.49,1.93,1.48.79,1.54-1.62,4.05,3.05,3.22-1.16,2.44-1.36,5.36-1.01,7.99,3.73.64.97.82,2.27,3.73.17.39,5.62,5.57,5.71,5.97.31,1.48-.28,6.04.02,6.3.39.35,3.11-.56,3.89.16.29.27-.02,1.72.5,2.41,2.2,2.9,5.52,7.05,7.32,9.74.92,1.38,2.31,9.83,4.78,3.69,2.07,2.03,4.77,2.17,7.53,2.01,1.18,4.3-1.7,3.77-1.91,4.07-1.29,1.82.99,1.95,1.08,2.07,3.53,4.71,1.36-.51,4.82-.14-2.52,4.62,1.43,2.98,1,6.99-12.42-8.96-34.91-31.29-37-47-.58-.1-1.3.22-1.93-.05-4.91-20.65-10.21-41.49-9.06-62.95l8.47,11.02c2.83,1.55,4.1,4.33,5.52,5.98Z"/>
      <path class="cls-11" d="M629.38,908.7l11.68,4.32c1.55,4.28,10.35,5.58,13.62,3.66.61-.36.57-1.75,1.37-1.97,5.96-1.6,2.22,4.92,3.32,5.99.27.26,3.9-.26,5.28.04.87.19,2.61,3.76,3.45,3.92,5.77,1.09,11.2,1.53,17.33,2.49,4.39.69,6.25,3.46,6.64,3.54,2.04.42,4.45-.35,6.59.05.9.17,2.93,4.04,3.26,4.01,1.95-.17,2.05-2.47,5.46-1.65,6.16,1.49,6.1,6.11,8.35,7.22,3.53,1.74,9.43,3.26,12.89,4.43,1.06.36,2.14,3.02,3.12,3.57,3.03,1.71,9.19.77,7.66,6.38-32.31-24.81-77.27-23.5-110-46Z"/>
      <path class="cls-2" d="M835.38,959.71c.43.6-5.1,11.94-5.95,13.54-.56,1.05-.87,2.86-2.54,2.45l-10.51-17.99,18.99,2.01Z"/>
      <path class="cls-11" d="M1003.38,836.7c-.36,3.6,2.85,11.89-3.34,9.99-.74-.23-.62-1.88-1.31-2.02-1.69-.34-5.17,1.01-6.66,2.01-.94.62-.6,1.96-.69,2.02.15-.14,3.11-.4,3.98-.51-1.06,4.51-5.79,2.17-3.98.51-2.09,1.36-5.47,2.96-7.82,3.71-1.3.42-4.03.15-4.18.29-.41.38.39,5.61,0,6-.36.36-3.41-.36-4.01,0v-1.99s-2.99,0-2.99,0v1.99s2.99,0,2.99,0c-.09.05.4,1.73-.66,2.01-2.03.54-10.8-.57-11.34-.02-.39.4.42,5.63,0,6-.32.28-2.29-.32-3.22.04s-.65,1.6-1.52,1.94c-.96.37-2.91-.22-3.25.03-2.23,1.64,3.74,2.05,2,3.98-3.07,1.6-6.34-.66-9.3.02-.36.08-5.04,3.87-5.4,3.96-8.22,2.04-6.23-3.06-7.45-3.84-2.08-1.34-4.93,2.55-3.85-5.12,2.28-.24,3.32,2.72,4.99,3.99,2.83,2.15,6.12-2.17,8-3,10.01-4.41,20.01-8.57,29.67-13.83,6.48-3.52,24.81-16.82,29.33-18.17Z"/>
      <path class="cls-11" d="M915.38,956.7c-.83,8.65-6.87,17.94-13,24-2.12,2.1-5.54,3.15-7,6-5.36,2.11-10.81,6.02-16,8-7.92,3.03-17.79,3.35-25,8-10.92,1.8-20.58,7.45-30,13-2.63,1.55-4.48,4.12-7,5,1.04-3.34,4.15-3.47,2-7.99,4,1.57,5.58-1.37,6.32-1.67,7.84-3.17,11.75-5.06,19.45-9.32,2.16-1.19,7.9-.77,8.23-1.02,2.15-1.67-4.11-2.3-1.99-3.99.21-.17,4.65-.2,5.35-.02,1.13.3-.16,2.53,2.14,2.03.93-.2.13-1.76,1.16-2.03,2.66-.69,7.34.52,10.35.01.85-3.82-4.01-1.21-4.99-2-1.36-1.1,3.79-5.74,6.85-3.85,1.05.65.07,4.44,2.64,3.87,1.08-.24,3-5.48,4.12-5.89,4.76-1.75,4.19,1.65,4.42,1.83,1.85,1.49,2.05-1.57,2.24-1.66,4.11-1.91,11.19-6.6,14.15-9.94.3-.34,1.07-.42,1.57-.37v-.97c-3.11.46-1.87-2.68-1.98-5.01,2.3,1.42,9-.05,9.68-2.27,1.69-5.53-1.66-11.75,6.32-13.74Z"/>
      <path class="cls-11" d="M606.38,812.7c5.43-.46,2.66,2.47,3.25,3.72,1.24,2.62,5.48,2.09,5.71,2.32.3.31.63,7.82,4.04,5.46.61-4.23-2.04-3.47-2.06-4.09-.11-6.26,6.75-2.42,6.06.98-.43,2.11-2.83,3.92-2.01,6.62,2.17.87,3.88,1.14,5.99,0v5c3.86,1.62,5.2-1.84,5.68-1.98,5.37-1.58,2.25,1.8,2.29,3.41.02.57,1.72.37,2.01,1.31.87,2.79-1.77,4.61,4.01,2.25-1.61,4.12,5.46,4.35,6.05,1.55,1.25-5.88,3.59,4.89,4.11,5.31.85.7,3.41-.18,3.85.16,2.16,1.64-4.1,2.3-2,3.99.48.39,4.69-.27,6,0,1.16,4.47-1.69,3.72-1.95,4.04-1.5,1.91,1.52,1.96,1.64,2.23,1.4,3,.73,6.66,6.3,5.73.42,3.17-1.52.66-2,4-4.6-3.41-10.28-18.02-14.05-20.45-2.2-1.41-9.66-2.91-13.26-4.74-7-3.54-9.78-7.56-14.68-11.82-6.72-5.84-9.14-8.05-15-15Z"/>
      <path class="cls-11" d="M938.38,869.7l1.33-3.62c4.21-1.06,1.33-5.06,1.67-5.37,1.46-1.31,14.23.37,10-8,1.47-.28,7.64.36,8,0s-.27-6.53,0-8.01c5.29-.47,4.99,2.62,11,2-6.88,6.76-18.67,10.92-25,18-2.79.04-5.25,2.87-7,5Z"/>
      <path class="cls-11" d="M601.38,822.7c.78.29,9.81,10.3,11.47,12.05,2,2.11,2.54.68,3.53,3.95,13.27,6.52,22.47,18.98,39.72,25.78,1.65.65,5.68,2.32,7.28,1.22-.06.43,1.49,3.3-1.52,3.07-3.91-.3-9.72-4.54-14.25-4.3-2.86-5.02-8.6-7.28-13.5-9.8-3.48-1.78-3.21-1.1-6.48-2.27-1.97-.71-6.53-10.56-11.24-7.71.78-2.35.71-3.66,0-5.99-.29-.14-1.51.21-2.71-.3-.46-.2-2.13-3.2-2.57-3.4-1.25-.56-3.42-.07-3.68-.33s.23-2.44-.33-3.69c-.77-1.72-7.65-4.23-5.71-8.27Z"/>
      <path class="cls-5" d="M583.38,719.7c3.54,8.77,4.93,18.32,8.34,27.16,2.25,5.82,5.72,12.58,8.7,18.1.56,1.03,1.87.68,1.94.76,1.07,1.29-.9,2.96-1.96,1.98-.12-.11-.45-1.97-1.46-3.01-4.4-4.56-6.26-7.11-9.56-11.98,2.61,1.19,1.71-4.1,1.63-4.32-.68-1.97-2.46-3.53-3.18-5.64-2.32-6.84-3.42-15.36-4.46-23.04Z"/>
      <path class="cls-11" d="M816.38,1020.7c-3.85,5.18-9.81,9.29-13,15-.44-2.3.11-3.51.99-5.5,2.89-6.51,6.41-7.22,12.01-9.5Z"/>
      <path class="cls-13" d="M573.38,763.7l-4.6-4.86c.1-3.55-5.09-7.29-2.4-10.14,2.39,4.8,4.6,10.47,7,15Z"/>
      <path class="cls-5" d="M945.38,864.7c-.06.06.15.92-.35,1.68-.21.31-3.73.77-.65,2.32-1.88.83-5.17,5.15-8,3,2.74.71,1.71-1.65,2-2,1.75-2.13,4.21-4.96,7-5Z"/>
      <rect class="cls-11" x="959.38" y="870.7" width="4" height="4"/>
      <path class="cls-11" d="M982.37,832.71c-.25,2.17-.63,4.73-2.99,3.99v-3.99s2.99,0,2.99,0Z"/>
      <rect class="cls-11" x="853.37" y="987.7" width="2" height="4.01" transform="translate(-137.26 1841.83) rotate(-89.87)"/>
      <rect class="cls-11" x="736.37" y="939.7" width="2" height="4.01" transform="translate(-205.99 1676.94) rotate(-89.87)"/>
      <rect class="cls-11" x="656.37" y="869.7" width="2" height="4.01" transform="translate(-215.81 1527.1) rotate(-89.87)"/>
      <rect class="cls-11" x="1011.38" y="755.71" width="1.99" height="2.99"/>
      <path class="cls-3" d="M559.38,735.7l-1.99,2c-.65-1.5.96-2.56.99-3,.37.29.64.71,1,1Z"/>
      <circle class="cls-11" cx="827.4" cy="1005.68" r="1.23"/>
      <circle class="cls-11" cx="932.4" cy="875.68" r="1.23"/>
      <circle class="cls-11" cx="1006.4" cy="795.68" r="1.23"/>
      <path class="cls-11" d="M908.88,956.7c.65.33.65.67,0,1v-1Z"/>
      <path class="cls-12" d="M620.38,552.7c-.46.35-.99,1.78-1.94,2.51-20.75,16.12-40.67,35.41-55.06,57.49-27.59-2.89-65.17-5.79-91.22-14.28-38.93-12.69,14.22-25.46,27.03-28.41,39.35-9.05,81.05-13.04,121.19-17.31Z"/>
      <path class="cls-3" d="M1023.38,645.7l-1,3c-.38-.73-1.01-2.24-1.99-2,2.58,26.18-1.24,55.25-15.01,78,2.31-4.96,4.79-13.84,6.01-19.32.19-.86,1.89-.16,2.02-2.13.25-3.78-1.34-8.44-.03-12.54h-4.02c1.13-6.3-.23-12.22-.04-18.56.04-1.45,1.22-5.23,1.04-5.44-1.4-1.66-2.2,1.03-2.48,1.96-1.94,6.42-.24,14.63-.52,21.58-.08,1.92,1.03,4.01-2,3.46,0-.33,0-.67,0-1-.21-15.14-.92-29.59-6-44,7.97-.95,16.07-1.76,24-3Z"/>
      <g>
        <path class="cls-1" d="M1083.38,549.7c.62.23,1.11,1.16,4,2,1.06.31,3.02-.09,4,1,.13.15-.36,1.45.17,1.82.36.26,7.24,3.07,7.83,3.18.9.17,2.05-.13,3,0-.34,1.91.1,2.32,2,2,2.52,2.8,5.06,2.23,6.73,3.27.31.2,3.75,3.51,5.27,4.73,10.11,8.06,24.8,20.29,20,35-.1.29-.77,1.58-1,2-1.81,3.24-6.36,5.24-7,9-4.47,1.62-4.5,3.65-6.29,4.7-2.27,1.33-4.38-.36-6.71,3.3-1.41-.46-2.22.71-3,1-23.84,8.94-45.83,15.23-71,20-.62.12-1.38-.12-2,0-1.35.25-2.65.76-4,1-1.6.29-3.07.84-4,1-2.4.41-5.3.58-8,1-7.93,1.24-16.03,2.05-24,3-.93.11-1.76.97-2,1-5.56.63-12.28.46-18,1-4.65.44-9.72,1.67-14,2-.66.05-1.34-.05-2,0-8.85.65-18.27-.56-27,2-53.32.87-102.95,1.69-156.46-.04-6.45-.21-14.44-.61-20.54,1.04-1.33-.03-2.67-.01-4,0,.56-3.03-1.53-1.92-3.45-2-31.92-1.48-63.82-4.6-95.55-8-8.35-.89-16.68-2.01-25-3-2.66-.32-5.33-.67-8-1-6.32-.78-12.69-1.26-19-2-3.7-.43-7.98-1.91-12-2-1.24-.8-2.57-.91-4-1-1.65-.11-3.34.03-5,0-10.14-2.71-22.37-4.44-33-5-1.17-.06-.19-1.6-3,0-2.01.71-1.85-1.81-2.68-1.99-33.02-6.87-73.86-6.78-102.32-27.01-.81-.57-2.86-1.88-3-2-8.52-7.26-10.52-14.09-.34-20.84,5.49-3.64,14.98-7.22,21.34-9.16.55-.17,1.44.16,2,0,7.88-2.27,15.97-4.38,24-6,1.43-.29,2.85-.78,4-1,3.32-.62,7.77-.47,11-1,2.63-.43,5.46-1.77,7-2,26.11-3.88,52.79-5.2,79-8l2-1c6.1.42,13.82.25,20,0,4.89-.2,9.86-1.74,15-1-1.28.93-2.84,1.12-4,2-40.14,4.27-81.84,8.26-121.19,17.31-12.81,2.94-65.96,15.72-27.03,28.41,26.05,8.49,63.63,11.39,91.22,14.28,16.8,1.76,32.09,3.25,49,4,1,.04,2-.03,3,0,3.42.12,7.51,1.14,12,1,4.28,1.98,10.12.8,15,1,7.01.29,13.97.74,21,1,11.99.44,23.98,1.26,36,1,66.11,3.54,141.76-1.68,208-6,6.65-.43,13-1.57,19-2,13.67-.98,27.29-1.83,41-3,3.34-.28,6.92-.72,10-1,9.89-.9,20.1-1.01,30-2,1.32-.13,2.68-.86,4-1,4.32-.44,30.7-2.05,32-3l2-1c4.89.61,21.18-4.45,26-7,.96,2.1,3.65-.25,5-1,1.75-.97,5.78-3.03,7.35-4.15,21.06-14.99,4.69-31.13-10.35-41.86-.23-1.93,1.83-.55,2.77-.28,2.22.63,5.09,1.5,7.22,2.29Z"/>
        <path class="cls-11" d="M1076.38,593.7c-1.35.75-4.04,3.1-5,1,1.24-.66,3.32-3.68,5-1Z"/>
        <path class="cls-2" d="M1115.38,621.7c-.49.78,1.24,2.73-2.49,1.99l-.51-.99c.78-.29,1.59-1.46,3-1Z"/>
        <path class="cls-11" d="M442.38,602.7l-2.99,1v-3c.13.12,2.18,1.43,2.99,2Z"/>
        <path class="cls-11" d="M1045.38,601.7l-2,1c.16-.11-.1-1.42,0-1.99,1.07-.4,1.86.98,1.99.99Z"/>
        <path class="cls-8" d="M963.38,652.7c.56,3.02-1.53,1.94-3.45,2-7.83.26-15.72-.13-23.55,0,8.73-2.56,18.15-1.35,27-2Z"/>
        <path class="cls-13" d="M922.38,611.7c.57.06,2.45,1.8,4,1-6,.43-12.35,1.57-19,2,2.11-2.66,11.38-3.37,15-3Z"/>
        <path class="cls-3" d="M592.38,637.7c-.27,0-2.42,2.87-4-1,1.43.09,2.76.2,4,1Z"/>
      </g>
      <path class="cls-13" d="M691.38,989.7c4.77,5.35,9.9,9.46,15,14,.35.31.64.69,1,1,2.51,2.15,5.74,5.49,8,8-1.52-.63-3.42-1.44-4.78-1.96-.91-.36-2.88.25-3.2-.05-.36-.33.47-3.64-.45-5.06-1.09-1.68-5.24-.58-5.58-.92-.36-.36.4-3.63,0-4-.19-.18-2.41.24-3.7-.31s-5.99-8.86-6.29-10.69Z"/>
      <path class="cls-3" d="M567.37,634.71c.93,2.88-1.79,1.44-2,2.5-.54,2.67,2.28.48,2,2.48l-3.99-1,3.99-3.98Z"/>
      <path class="cls-8" d="M967.38,899.7c6.65,4.59,4.42-5.36,9.95-3.02l.06-2.99,1.94.99c-.19-6.87,6.49-3.1,4.59,1.01-.76,1.63-7.02,6.55-9.06,4.04,1.98,3.62-4.47,5.76-5.48,6.99-1.41,1.71,2.82,1.43,1.98,5.42-1.73,8.32-11.48,4.04-11.99,4.56-1.61,1.69.51,5.58,4,4,.98,5.37-1.43,3.23-3.51,4.96-2.57,2.13-7.28,8.42-9.54,9.5-1.94.93-3.98.14-6.06,1.94-2.49,2.15-3.3,8.51-8.94,12.06-3.62,2.27-9.6,1.17-9.96,1.54-.78.8,2.24,9.16-7.99,8v-4.99s1.98,2.99,1.98,2.99c-.79-5.65,2.45-12.54-2.99-15.99-.4-3.75-1.83-8.34-3.01-11.98,18.95-7.77,37.42-16.98,54.01-29.02Z"/>
      <path class="cls-8" d="M1027.38,743.7c.55,1.91,3.5-.45,4,0,.3.27-.78,2.11-.48,3.11.52,1.77,2.11,2.45,2.54,5.37.76,5.17-1.91,4.44-2.06,5.21-.38,1.91.99,4.46,1.01,5.31.02.92.31,1.88-.25,2.73-4.59,4.89-8.36,9.82-13.54,14.22-7.17,6.09-15.07,10.5-23.21,15.05-2.13.24-2.24.13-2-2,.17-.17.84.17,1,0l1-2c12.92-13.66,24.43-29.71,32-47ZM1029.37,748.7c.5-4.16-1.48-4.16-.98,0h.98Z"/>
      <path class="cls-13" d="M879.38,994.7c-1,5.46-7.67,4.4-12.01,4.01l.5,1.99c-2.87-1-4.98,1.63-7.06,1.95s-4.52-.27-6.44.05c7.21-4.65,17.08-4.97,25-8Z"/>
      <path class="cls-13" d="M902.38,980.7l.83.64c1.11,5.07-.85,2.54-3.06,3.39-1.39.53-3.14,1.32-4.77,1.97,1.46-2.85,4.88-3.9,7-6Z"/>
      <rect class="cls-4" x="1037.37" y="734.7" width="6.01" height="2.01" transform="translate(303.84 1775.49) rotate(-89.95)"/>
      <path class="cls-8" d="M916.38,948.7c.02-1,.03-2,0-3,1.2,1,1.2,2,0,3Z"/>
      <path class="cls-11" d="M552.38,755.7c12.14,13.82,17.08,36.5,21,54,1.21,17.28,6.42,38.99,11.98,55.52,4.34,12.88,10.12,27.03,20.02,36.48-.21,0-2.28,1.91-4,1-6.35-2.3-11.18-4.41-17-8-.15-.85,0-1.55-1-2l-12-14c-.68-1.67-1.33-3.33-2-5-12.33-30.92-13.22-55.02-19-87-2.37-13.13-3.8-27.09-10-38.99,1.86-1.42,10.53,6.32,12,7.99Z"/>
      <path class="cls-13" d="M569.38,873.7c-2.85.1-3.72-5.13-4.34-6.67-1.52-3.73-6.95-12.64-7.6-16.89-1.9-12.44-2.61-23.96-4.12-35.88-.52-4.16-1.29-14.01-1.97-16.87-.19-.81-1.8-.26-2.05-2.12-.29-2.11-.45-6.83,1.08-8.57,5.78,31.98,6.67,56.08,19,87Z"/>
      <path class="cls-13" d="M553.38,754.7c1.9-.21,4.72,4.79,5.43,6.1,7.05,13,9.47,21.39,12.59,35.21.17.74,1.78.61,1.96,1.37.73,3.04-.23,8.69.02,12.31-3.92-17.5-8.86-40.18-21-54,.24-.39.81-.67,1-1Z"/>
      <path class="cls-13" d="M601.38,902.7c1.97.71,4.51,1.52,6,3v1c-.66,0-1.34.05-2,0-4.69-.32-7.15-3.62-8.7-3.98-8.11-1.89-3.07-.8-7.62-3.7-.85-.54-2.32-.11-3.34-.67-3.3-1.82-1.3-3.41-1.34-3.66,5.82,3.59,10.65,5.7,17,8Z"/>
      <path class="cls-13" d="M571.38,878.7l12,14c-6.25,1.47-3.16-3.25-3.99-4.01-.37-.34-3.05.53-3.85-.14-.28-.23-.64-2.91-1.46-4.07-2.79-3.96-1.34-2.43-2.7-5.79Z"/>
      <path class="cls-8" d="M661.38,943.7l-1.99,1v-5c1.77.83,1.42,2.87,1.99,4Z"/>
      <path class="cls-13" d="M747.38,986.7l-1.01,1.99h-.98c.79-3.75-2.29-4.67-2.01-.99-3.68-8.69-11.17-20.68-18-27,5.42-1.94,4.16,4.65,6.24,5.79,1.02.56,2.81-.17,3.57.39.93.69,3.03,12.22,8.19,11.82-1.84-4.05,1.9-6.31,1.98-6.68,1.31-5.54-.84-10.08-3.98-14.31,2.21,1.56,6.42,5.06,6.83,7.72.34,2.18-1.57,5.08-1.83,7.77-.37,3.79.09,9.8,1,13.51Z"/>
      <path class="cls-2" d="M605.38,901.7c1.69,0,6.5,1.74,6,4-1.32-.1-2.67.07-4,0-1.49-1.48-4.03-2.29-6-3,1.72.91,3.79-1,4-1Z"/>
      <path class="cls-3" d="M611.38,905.7c.66.05,1.34-.05,1.99.01v.98c-1.99.04-4,0-5.99.01v-1c1.33.07,2.68-.1,4,0Z"/>
      <path class="cls-3" d="M569.88,718.7c.65.33.65.67,0,1v-1Z"/>
      <path class="cls-3" d="M1015.38,812.7l.91.59c-.33,2.7-5.31,8.47-4.91,3.41,1.26-1.39,3.21-3.03,4-4Z"/>
      <path class="cls-3" d="M1031.38,732.7c.2-.16,1.57.33,1.88-.07.6-.79-.21-3.7.14-5.25.17-.75,1.78-.61,1.96-1.37.61-2.53-.55-6.07.04-8.63.19-.81,1.81-.27,2.06-2.12s-.52-11.12-.07-11.56c1.07,0,2.07-.28,3.05.44,1.88,1.37.66,18.09,1,22,1.46,16.98,5.56,34.82,6.98,52.02.83,9.99-3.28,54.4-6.52,63.55-4.16,11.73-6.21,25.98-12.55,35.71-2.48,3.81-1.17,8.22-2.16,11.59-.82,2.8-5.54,3.11-7.26,5.74-2.39,3.66-3.28,14.75-5.02,16.98-1.04,1.32-3.67.62-5.05,1.95-1.11,1.07-1.61,4.6-2.61,6.39-1.8,3.17-4.52,2.78-3.95,8.16.26,2.45,4.17,6.1-.59,7.37-3.76,1-3.12-5.05-6.35-3.42-7.8,3.93-9.98,20.23-12.97,22.08-2.2,1.37-4.79-1.11-6.04-.13s-.74,4.11-1.91,6.14c-.3.52-7.98,8.2-8.5,8.5-2.06,1.17-4.58.66-5.61,1.39-.51.36-2.98,6.95-6.94,10.06-4.68,3.68-4.84,2.27-9.28,3.72-5.35,1.75-5.67,9.64-2.73,13.76-4.22,1.19-7.9-3.86-10.45-3.05-.83.27-.64,2.49-1.49,3.59-2.88,3.75-8.04,1.53-10.13,2.9-1.69,1.1-.58,5.21-.93,5.58-.25.27-5.48-.32-7.3.2-2.76.8-7.65,6.41-11.63,7.37-3.6.86-15.91.46-17.59,3.43-.74,1.31-.33,3.82-.5,4.01-.32.36-2.54-.94-3.54-.89-1.73.09-2.84,1.45-4.18,1.66-8.11,1.27-22.67,2.52-30.75,2.21-1.21-.05-8.01-1.13-8.56-1.47-1.96-1.19.51-4.07.04-4.52-.64-.6-8.6,3.64-10.99,1.99-.6-3.91,5.11-.08,2.5-4.99h-2.5c9.42-5.56,19.08-11.2,30-13,1.92-.32,4.29.28,6.44-.05s4.18-2.95,7.06-1.95l-.5-1.99c4.34.39,11.01,1.45,12.01-4.01,5.19-1.98,10.64-5.89,16-8,1.64-.65,3.39-1.43,4.77-1.97,2.21-.85,4.17,1.68,3.06-3.39l-.83-.64c6.13-6.06,12.17-15.35,13-24,.06-.66-.04-1.34,0-2,1.69-1.09.97-4.11,1-6,1.2-1,1.2-2,0-3-.05-1.64.17-3.42,0-5,5.44,3.45,2.2,10.35,2.99,15.99l-1.98-2.99v4.99c10.23,1.16,7.2-7.2,7.98-8,.36-.37,6.34.74,9.96-1.54,5.65-3.55,6.45-9.91,8.94-12.06,2.08-1.8,4.13-1.01,6.06-1.94,2.26-1.08,6.96-7.37,9.54-9.5,2.08-1.73,4.5.42,3.51-4.96-3.49,1.58-5.62-2.31-4-4,.5-.53,10.25,3.76,11.99-4.56.83-3.99-3.39-3.71-1.98-5.42,1.01-1.23,7.45-3.37,5.48-6.99,2.04,2.51,8.3-2.41,9.06-4.04,1.9-4.11-4.78-7.88-4.59-1.01l-1.94-.99-.06,2.99c-5.52-2.34-3.29,7.62-9.95,3.02,19.85-14.41,38.17-33.38,48.17-56.33,3.14-7.2,5.81-14.86,6.82-22.67-.86.97-3.62,1.67-3.99,2-5.79-.44,2.11-5.38,2.48-6.03.53-.92.23-2.39.62-3.17.31-.6,3.76-2.9,1.89-4.79-2.29-2.32-4.54,3.6-5.99.99,5.95-7.88,8.33-14.61,13.14-22.4.75-1.21,2.81-1.42,2.93-2.26.14-.99-.99-2.5-.78-3.7,1.37-7.66,6.27-16.06,4.7-24.63l-4.99,5.99c-.02-.85-1.39-3.4-1.01-5.31.15-.77,2.82-.04,2.06-5.21-.43-2.91-2.02-3.6-2.54-5.37-.29-1,.78-2.84.48-3.11-.5-.45-3.44,1.9-4,0,.86-1.97,1.23-4.9,2-7,.11-.3-.12-.72,0-1,.33-.8,1.35-2.47,2-3ZM1039.38,732.7v6.01s2,0,2,0v-6.01s-2,0-2,0Z"/>
      <path class="cls-8" d="M1005.38,693.7c3.03.56,1.92-1.53,2-3.46.28-6.95-1.42-15.16.52-21.58.28-.93,1.08-3.62,2.48-1.96.18.21-1,3.99-1.04,5.44-.19,6.34,1.16,12.25.04,18.56h4.02c-1.32,4.11.27,8.77.03,12.54-.13,1.97-1.83,1.27-2.02,2.13-1.21,5.48-3.7,14.37-6.01,19.32-.8,1.72-3.68,5.75-5,8-1.67-1.32-1.07-4.86-1-7,.01-.33-.03-.67,0-1,3.56.62,1.51-3.25,2.02-5.31.19-.76,1.78-.62,1.96-1.37.53-2.24-.16-5.74.02-8.32.02-.33-.02-.67,0-1l2,1.5c-.03-5.5.02-11.01,0-16.5Z"/>
      <path class="cls-13" d="M1000.38,732.7c-1.57,2.68-3.1,7.21-7,7.99l6-14.99c-.07,2.14-.67,5.68,1,7Z"/>
      <path class="cls-13" d="M1003.38,709.7c-.18,2.57.51,6.08-.02,8.32-.18.74-1.77.61-1.96,1.37-.51,2.06,1.54,5.94-2.02,5.31.4-4.83,1.63-10.78,4-15Z"/>
      <path class="cls-13" d="M1005.38,693.7c.02,5.49-.02,11,0,16.5l-2-1.5c.36-5.13.37-11.43,2-16,0,.33,0,.67,0,1Z"/>
      <path class="cls-10" d="M706.38,1003.7c1.12-7.29-5.38-6.59-6.77-8.23-.92-1.09-.57-4.66-1.45-5.55-1-1.02-6.37-.92-6.7-1.31-.42-.5.26-2.41-.11-3.15-.65-1.27-2.75-.49-1.99-3.27.1-.37,1.99-.44,2.07-1.11,1.11-8.56-7.41-8.36-8.58-10.36-.92-1.58-.18-4.69-.49-5.01-.24-.25-6.06.12-6.85-1.15s.45-5.27-.25-7.25-3.6-1.11-3.94-2.17c-1.89-5.87,6.02-3.41,8.13-4.89,1.43-1-.59-5.13,5.23-3.52.77.21.64,1.77,1.38,1.95,2.37.57,5.75-.33,8.31.03l-.99,3.99c3.91-1.63,5.71-2.75,10.24-1.71,5.31,1.22,3.35,5.29,3.75,5.72.88.97,6.34-1.09,7.42-.84,1.8.42,2.32,4.73,4.01,5.92s4.32.75,4.53.96c.56.55-.47,5.35.09,5.92.29.29,6.8.82,7.95,2.06,2.3,2.45-3.34,1.8-3.84,2.13s-1.34,3.49-1.1,4.24c.52,1.65,3.31,1.35,4.42,2.64s.92,4.74,3.04,5.97l1.49-4.99c6.68,1.26,2.59,9.17,5.01,13.99.84,1.11,1.29-4.22,2.98-1.99,1.9,2.5-1.91,4.41-1.97,4.68-2.17,10.38,3.92,6.91,5.74,9.56.67.97,2.59,9.09,3.36,9.63,2.36,1.63,5.57-3.02,4.87,4.13,3,.24,4.44.23,4,3.99h-4.99c-.4-.36.9-3.04,1-3.99-5.24-.42-9.5,3.4-15.31,1.97-.75-.18-.63-1.78-1.37-1.95-2.07-.48-4.8.46-6.67.03-1.2-.28-1.21-3.59-2.22-4.98-1.24-1.7-4.5-2.34-5.18-3.39-.13-.2-1.5-6.48-2.26-1.94-.23,1.35.86,2.69-1.47,2.25-5-4.12-5.67-9.81-13.51-7.99-.36-.31-.65-.69-1-1ZM691.37,954.7v2.01s6.01,0,6.01,0v-2.01s-6.01,0-6.01,0Z"/>
      <path class="cls-4" d="M743.38,987.7c-.28-3.68,2.8-2.76,2.01,1h.98s1.01-2,1.01-2c2.15,8.77,11.42,19.96,17.47,27.03,3.01,3.51,9.31,6.06,8.52,11.97-21.86-2.5-23.35-22.33-29.99-37.99Z"/>
      <path class="cls-5" d="M993.38,792.7c-.24,2.13-.13,2.24,2,2-1.93,1.08-4.33,4.84-8,3.99,1.16-2.61,4.19-4.16,6-5.99Z"/>
      <path class="cls-5" d="M994.38,792.7c.1-.1.21-1.17,1-2l-1,2Z"/>
      <path class="cls-3" d="M1029.37,748.7h-.98c-.5-4.16,1.48-4.16.98,0Z"/>
      <rect class="cls-11" x="693.37" y="952.7" width="2.01" height="6.01" transform="translate(-261.88 1649.31) rotate(-89.95)"/>
      <g>
        <path class="cls-6" d="M671.38,732.7c-.87-9.05-3.21-21.89-2.08-30.57.24-1.85,1.87-1.31,2.06-2.12.61-2.58-.23-6.7.07-9.76.39-4.05,3.66-3.69-.91-8.88,3.73-4.28,6.59-11.07,9.84-15.21.65-.83,7.94-8.24,8.46-8.53,2.19-1.23,4.25-.53,5.35-1.16.57-.33.78-2.22,1.61-2.85,1.7-1.29,21.82-1.43,25.17-1.01,1.91.24.95,1.92,2.87,2.16,6.62.84,15.58-.56,22.11-.2,1.87.1.95,1.93,2.89,2.2,3.07.42,5.47-1.07,6.57-1.08,1.33-.01,2.67-.03,4,0,.13,0,.24,1,2.43,1.04,8.51.15,17.06-.21,25.57-.03l-1.49,1.99,126.05-.06,6.17,1.85,17.27.21c.73,3.42-2.31,1.42-4.31,2.01-.77.23-.6,1.77-1.37,1.97-3.51.89-4.99-2.1-4.31,4.01h5.01c.28,3.84,1.02,10.83,2.23,14.27,4.89,13.9,13.17,26.1,11.76,41.74l-2-1.49c-21.74,40.52-71.44,42.11-106.33,65.67-18.63,12.58-34.95,31.1-39.19,53.83-19.47-10.9-14.11-33.71-4.91-49.93.61-1.07,5.1-7.59,5.68-7.77,2.85-.92,6.14.05,9.13-.43,6.76-1.09,18.02-2.72,20.62-9.87-17,5.52-16.34-11.56-20.8-22.7-5.14-12.84-14.03-28.81-29.23-29.88-3.47,8.52,4.18,16.4,7.21,23.9,1.65,4.07,6.58,22.12,2.7,24.55-4.02,2.52-14.81-6.54-17.38-9.85-8.13,17.51-19.34,33.45-33,46.96-4.79-5.35-8.84-11.48-13.85-16.63-15.66-16.11-49.36-34.52-51.65-58.35Z"/>
        <path class="cls-9" d="M965.38,652.7c-.61,2.03,1.59,1.69,1.97,2.77.7,1.96-1.4,4.45,3.39,3.23.71-.18.77-3.16,3.63-2-1,4.82,2.08,10.85.98,15.32-.19.76-1.77.61-1.95,1.37-.72,3.01.68,7.63-.04,10.63-.15.6-3.52,8.72-4.32,10.35-.24.5-2.92,1-1.67,4.33l-1.98-1.99c-.22,1.57.27,3.52-.01,5-1.73,9.21-13.55,19.68-20.51,25.99-.89-.19-.56-2.22-.49-2.99,1.4-15.64-6.87-27.84-11.76-41.74-1.21-3.44-1.95-10.43-2.23-14.27h-5.01c-.67-6.11.8-3.12,4.31-4.01.78-.2.6-1.74,1.37-1.97,2.01-.59,5.05,1.41,4.31-2.01l-17.27-.21-6.17-1.85-126.05.06,1.49-1.99c-8.51-.17-17.05.18-25.57.03-2.18-.04-2.3-1.04-2.43-1.04,6.11-1.65,14.1-1.25,20.54-1.04,53.51,1.73,103.14.91,156.46.04,7.82-.13,15.72.26,23.55,0,1.93-.06,4.01,1.02,3.45-2,.66-.05,1.34.05,2,0Z"/>
        <path class="cls-9" d="M656.38,645.7c31.73,3.4,63.63,6.52,95.55,8,1.92.09,4.01-1.03,3.45,2-1.09.01-3.5,1.5-6.57,1.08-1.94-.26-1.03-2.09-2.89-2.2-6.53-.36-15.49,1.03-22.11.2-1.91-.24-.95-1.92-2.87-2.16-3.35-.42-23.48-.28-25.17,1.01-.83.63-1.04,2.52-1.61,2.85-1.09.63-3.16-.07-5.35,1.16-.52.29-7.81,7.7-8.46,8.53-3.26,4.14-6.12,10.92-9.84,15.21,4.58,5.19,1.31,4.83.91,8.88-.3,3.06.54,7.18-.07,9.76-.19.81-1.81.27-2.06,2.12-1.13,8.68,1.21,21.52,2.08,30.57-2.53-4.29-3.69-12.4-4.04-17.46-.71-10.33,1.05-19.52,2.03-29.53-2.27-2.64-7.44,9.66-7.9,10.57-.54,1.07.52,1.88-2.09,1.42-2.62-17.15-5.44-34.63-3-52Z"/>
        <path class="cls-8" d="M631.38,642.7l-8.99,43.99c-5.84-14.16-2.62-30.58.99-44.99,2.67.33,5.34.68,8,1Z"/>
        <path class="cls-8" d="M979.38,650.7c.8,15.89-3.09,33.03-10.32,47.2-.79,1.56-1.33,4.23-3.68,3.8.28-1.47-.21-3.42.01-5l1.98,1.99c-1.25-3.33,1.43-3.83,1.67-4.33.8-1.63,4.17-9.75,4.32-10.35.73-3-.68-7.62.04-10.63.18-.76,1.76-.62,1.95-1.37,1.11-4.46-1.98-10.49-.98-15.32-2.87-1.16-2.92,1.82-3.63,2-4.79,1.22-2.69-1.27-3.39-3.23-.39-1.07-2.59-.74-1.97-2.77,4.28-.33,9.35-1.56,14-2Z"/>
        <path class="cls-3" d="M582.38,636.7c-.03,4.42-8.63,3.62-9.01,4-2.54,2.6,3.21,5.06,3.83,6.67s.92,3.96-1.83,3.32c-1.13-1.65-6.5-8.09-8-9,4.47-6.57,7.82-4.92,15-5Z"/>
        <path class="cls-8" d="M588.38,636.7c1.58,3.87,3.73.99,4,1,4.02.09,8.3,1.57,12,2-2.08.96-2.62,3.15-3.47,5.04-1.65,3.68-7.53,19.46-7.53,22.46v16c1.74,3.55-2.89-2.3-3.2-2.8-5.63-9.27-8.56-20.57-14.8-29.7,2.75.64,2.45-1.71,1.83-3.32s-6.37-4.08-3.83-6.67c.37-.38,8.97.42,9.01-4,.33,0,.67,0,1,0,1.66.03,3.35-.11,5,0Z"/>
        <path class="cls-8" d="M633.38,596.7c2.73-1.44,1.63-9.64,2-10,.23-.23,3.99.11,6.38-1.12,6.06-3.14,10.55-10.25,15.12-13.88,1.66-1.32,14.89-10.93,15.8-11.28,2.58-1.01,4.1.65,6.04.33.71-.12.56-1.84,1.33-2.03,1.3-.32,5.04.29,5.33,0s-1.04-4.87,2.46-7.09c2.76-1.76,4.14.66,6.5-.36,4.09-1.77,9.35-10.17,14.3-11.78,3.04-.99,5.55-.33,8-1,7.49-2.07,14.94-5.22,22.69-7.31,16.67-4.49,31.04-6.25,48.51-6.49,16.53-.23,29.64,1.12,45.77,4.31,12.03,2.38,25.03,5.61,35.7,10.26s21.86,5.63,32.45,11.59c2.92,1.64,6.47,6.62,9.89,8.11,2.96,1.3,5.61.8,9.07,2.93,2.78,1.71,5.29,6.02,7.92,7.08,2.33.94,4.91.35,6.76,1.24.85.41,4.54,5.78,6.53,7.47,3.53,3.01,8.34,5.25,12.47,8.03,4.18,8.06,10.31,15.15,13,24-13.71,1.17-27.33,2.02-41,3-1.55.8-3.43-.94-4-1l16.99-1.99c-1.44-.22-7.31-.64-7.84-1.23-.41-.46.12-2.15-.3-2.58s-2.87-.17-4.42-1.13c-1.95-1.2-3.42-5.57-5.9-7.11-4.52-2.82-13.92-4-19.25-7.75-2.64-1.86-3.71-5.3-6.54-6.46s-5.38-.3-7.98-1.02c-5.86-1.62-16.74-7.18-21.4-10.6-4.44-3.26-7.63-1.33-11.81-2.19-55.2-11.34-92.01-10.99-143.12,12.98-4.69,2.2-15.92,12.75-20.71,15.79-.95.61-5.17,1.39-6.72,2.27v-5c-7.85-.54-9.19,6.43-11.86,11.61-.61,1.19-4,5.71-4.11,6.09-1.65,5.51,3.71,2.5,7.28,3.33,6.57,1.52,17,3.57,24.69,3.98-12.02.26-24.01-.56-36-1,8.78-26.83,29.4-47.21,53.33-61.17l27.67-12.82c-40.38,5.37-81.33,31.6-100.42,68.07-.86,1.64-1.85,2.85-1.57,4.92-4.88-.2-10.72.98-15-1,.99-.03,1.99.1,2.98,0,.27-3.32.62-6.69,1.02-9.99,3.3-1.67,1.93-7.57,2-11Z"/>
        <path class="cls-9" d="M699.38,620.7c-7.69-.41-18.12-2.45-24.69-3.98-3.57-.83-8.93,2.18-7.28-3.33.11-.37,3.5-4.9,4.11-6.09,2.67-5.17,4.01-12.14,11.85-11.61v5c1.56-.88,5.77-1.67,6.73-2.27,4.78-3.04,16.02-13.6,20.71-15.79,51.11-23.97,87.92-24.32,143.12-12.98,4.18.86,7.37-1.07,11.81,2.19,4.66,3.42,15.54,8.97,21.4,10.6,2.6.72,5.09-.17,7.98,1.02s3.9,4.61,6.54,6.46c5.33,3.75,14.73,4.93,19.25,7.75,2.48,1.55,3.95,5.91,5.9,7.11,1.56.96,3.98.68,4.42,1.13s-.12,2.12.3,2.58c.53.59,6.4,1.01,7.84,1.23l-16.99,1.99c-3.62-.37-12.89.34-15,3-66.24,4.32-141.89,9.54-208,6Z"/>
        <path class="cls-11" d="M642.38,618.7c-.27-2.07.72-3.28,1.57-4.92,19.09-36.47,60.04-62.7,100.42-68.07l-27.67,12.82c-23.93,13.96-44.55,34.34-53.33,61.17-7.03-.26-13.99-.71-21-1Z"/>
        <path class="cls-3" d="M612.38,616.7c.56-3.03-1.53-1.92-3.45-2-5.5-.22-11.05.17-16.54,0l2.99-1.98h-10.49c-2.88-.36,4.55-5.39,4.99-6,1.13-1.56,1.06-3.89,1.77-4.75s4.13-1.59,5.68-2.82c4.58-3.65,10.83-14.32,12.67-15.33,3.59-1.98,8.07-.96,10.9-6.09l.48,12.48,2.01-1.5c-.24,10.59-3.41,18.69-8,28-1-.03-2,.04-3,0Z"/>
        <path class="cls-11" d="M627.38,572.7c.65,2.25,2.64,8.7,4,10,1.37,8.86,1.07,16.21,0,25-.4,3.3-.75,6.68-1.02,9.99-.99.11-1.99-.02-2.98,0-4.49.14-8.58-.88-12-1,4.59-9.31,7.76-17.41,8-28,.18-8.06-.8-14.57-3.99-22l7.99,6Z"/>
        <path class="cls-11" d="M954.38,585.7c3.95,2.67,7.96,5.52,11.52,8.95,2.22,2.14,10.14,10.14,11.48,12.05.2.28-.13,1.43,0,2-3.08.28-6.66.72-10,1-2.69-8.85-8.82-15.94-13-24Z"/>
        <path class="cls-3" d="M627.38,572.7c-.3-1.04.35-2.92-.02-4.28-.13-.48-3.8-2.64-1.97-6.72.35-.37,6.04,2.5,9.06-2.44s-1.73-6.56-.65-8.58c.63-1.17,4.84-3.16,5.99-2.86,1.43.36,1.71,3.32,3.24,3.8,3.41,1.06,8.78-6.27,11.41-8.36,6.46-5.13,5.28-.25,8.3-10.53.25-.86-.44-1.94-.35-1.99.37-.21,7.9-2.13,8.37-1.98,3.15,1.03-.11,6.23,3.1,5.93,2.96-3.3,9.5-11.05,13.98-11.03,1.6,0,3.27,1.22,4.83.87,2.49-.55,9.29-6.6,5.7-9.83,2.8-.24,6.62-.34,9.25-1.08.93-.26.5-2.01,2.21-2.05,1.89-.04,3.68,1.13,4.94,1.11.4,0,2.15-3.26,3.43-3.87,5.98-2.88,15.5-2.12,22.44-4.17s10.77-.93,18.3-1.87c1.91-.24.95-1.92,2.87-2.16,9.4-1.19,41.79-1.22,51.13,0,1.85.24,1.31,1.86,2.12,2.06,10,2.36,24.83,2.16,35.57,4.26,4.71.92,11.19,4.81,15.92,6.08,5.98,1.6,12.09,1.37,17.82,3.71l-1.01,1.96c1.64-.7,11.49,2.48,12.02,3.02.23.24-1.4,2.57-1.01,2.98,1.88,1.99,2.08-3.85,3.98-1.99.45.44.83,4.76,1.06,4.96.99.88,8.07-2.89,10.37,1.03.56.95-2.01,2.57,2.6,2.01l-1.02,1.99c2.08.26,4.02-.93,6.1-.57,1.08.19,6.5,6.32,8.18,6.93,2.33.84,7.85-1.04,7.22,3.63.58-.59,1.74-1.01,2.52-.98.01,1.09-1.12,2.19-.52,2.97,3.69-2.89,2.14,1.98,4.56,3.52,1.15.73,7.44,2.41,7.78,2.68.63.51.97,6.64,5.72,3.86-1.06,3.21,1.01,1.32,2.21,2.16.36.25,3.99,6.48,4.48,7.58l5.29.27-.51,3.96,2.5-2.01c.56,3.32,3.1,1.37,4.38,2.11,1.58.91-.23,9.55.12,9.9.45.45,3.64-1.43,3.99-1-1.06,4.95,3.2,2.13,6.78,3.66,1.23.53,1.35,2,2.32,2.75.84.65,2.55.44,2.8.69.79.81-1.3,5.24-.49,7.93.5,1.67,5.44,7.1,6.91,6.84,1.17-.2,1.82-2.46,3.68-1.87-.31,1.6.59,5.99-.16,6.84-2.74,3.12-15.57,1.94-19.83,2.15-1.34-1.91-9.26-9.91-11.48-12.05-3.56-3.43-7.57-6.28-11.52-8.95s-8.93-5.03-12.47-8.03c-1.99-1.69-5.68-7.06-6.53-7.47-1.84-.89-4.43-.3-6.76-1.24-2.63-1.07-5.13-5.37-7.92-7.08-3.46-2.13-6.11-1.63-9.07-2.93-3.42-1.49-6.97-6.47-9.89-8.11-10.59-5.96-22.08-7.07-32.45-11.59s-23.68-7.88-35.7-10.26c-16.13-3.19-29.24-4.55-45.77-4.31-17.47.25-31.84,2-48.51,6.49-7.75,2.09-15.2,5.24-22.69,7.31-2.44.68-4.95.01-8,1-4.95,1.61-10.21,10.02-14.3,11.78-2.36,1.02-3.74-1.4-6.5.36-3.5,2.23-2.16,6.78-2.46,7.09s-4.03-.31-5.33,0c-.77.19-.62,1.91-1.33,2.03-1.94.32-3.46-1.33-6.04-.33-.91.35-14.14,9.97-15.8,11.28-4.57,3.62-9.06,10.74-15.12,13.88-2.39,1.24-6.15.9-6.38,1.12-.37.36.74,8.56-2,10,.07-3.26.64-10.91.05-13.42-.28-1.19-1.84-.38-2.05-.58-1.36-1.3-3.35-7.75-4-10ZM742.37,506.71c-4.16-.5-4.16,1.48,0,.98v-.98Z"/>
        <path class="cls-13" d="M631.38,582.7c.21.2,1.77-.61,2.05.58.59,2.51.01,10.16-.05,13.42-.07,3.43,1.3,9.33-2,11,1.07-8.79,1.37-16.14,0-25Z"/>
        <path class="cls-3" d="M695.88,514.7c.65.33.65.67,0,1v-1Z"/>
        <path class="cls-4" d="M742.37,506.71v.98c-4.16.5-4.16-1.48,0-.98Z"/>
        <path class="cls-4" d="M624.38,550.7c66.12-48.12,146-63.69,226.01-45.51,30.06,6.83,58.2,18.18,84.34,34.44.98.47.64,1.26.65,2.07,4.05.2,10.66,5.59,14.31,8.19,21.73,15.44,41.48,35.76,57.69,56.81-9.9.99-20.11,1.1-30,2-.13-.57.2-1.72,0-2,4.26-.21,17.09.97,19.83-2.15.75-.85-.15-5.25.16-6.84-1.86-.59-2.51,1.66-3.68,1.87-1.47.25-6.41-5.17-6.91-6.84-.8-2.68,1.29-7.11.49-7.93-.25-.25-1.96-.05-2.8-.69-.97-.75-1.09-2.23-2.32-2.75-3.58-1.53-7.84,1.29-6.78-3.66-.35-.43-3.54,1.45-3.99,1-.35-.35,1.45-8.99-.12-9.9-1.28-.74-3.82,1.21-4.38-2.11l-2.5,2.01.51-3.96-5.29-.27c-.49-1.1-4.12-7.32-4.48-7.58-1.2-.85-3.27,1.05-2.21-2.16-4.75,2.77-5.09-3.35-5.72-3.86-.34-.27-6.63-1.95-7.78-2.68-2.42-1.54-.87-6.42-4.56-3.52-.61-.78.53-1.88.52-2.97-.77-.04-1.93.38-2.52.98.63-4.67-4.89-2.79-7.22-3.63-1.67-.6-7.09-6.74-8.18-6.93-2.08-.36-4.02.83-6.1.57l1.02-1.99c-4.62.55-2.05-1.06-2.6-2.01-2.3-3.92-9.38-.15-10.37-1.03-.23-.2-.6-4.52-1.06-4.96-1.91-1.86-2.11,3.98-3.98,1.99-.39-.41,1.24-2.75,1.01-2.98-.53-.54-10.38-3.72-12.02-3.02l1.01-1.96c-5.73-2.34-11.84-2.11-17.82-3.71-4.73-1.27-11.21-5.16-15.92-6.08-10.74-2.1-25.57-1.9-35.57-4.26-.81-.19-.27-1.81-2.12-2.06-9.35-1.22-41.73-1.19-51.13,0-1.91.24-.95,1.92-2.87,2.16-7.53.94-11.46-.16-18.3,1.87s-16.46,1.29-22.44,4.17c-1.28.61-3.02,3.87-3.43,3.87-1.26.02-3.05-1.15-4.94-1.11-1.71.04-1.28,1.79-2.21,2.05-2.62.74-6.45.84-9.25,1.08,3.59,3.24-3.21,9.28-5.7,9.83-1.56.34-3.23-.87-4.83-.87-4.48-.02-11.03,7.73-13.98,11.03-3.21.3.05-4.9-3.1-5.93-.47-.15-8,1.76-8.37,1.98-.09.05.6,1.14.35,1.99-3.02,10.28-1.84,5.4-8.3,10.53-2.63,2.09-8,9.42-11.41,8.36-1.53-.48-1.82-3.44-3.24-3.8-1.16-.29-5.36,1.69-5.99,2.86-1.08,2.02,3.51,3.89.65,8.58-3.02,4.93-8.71,2.07-9.06,2.44-1.83,4.08,1.84,6.23,1.97,6.72.38,1.36-.28,3.23.02,4.28l-7.99-6c3.19,7.43,4.17,13.94,3.99,22l-2.01,1.5-.48-12.48c-2.83,5.13-7.31,4.11-10.9,6.09-1.84,1.01-8.08,11.68-12.67,15.33-1.55,1.23-5.01,2-5.68,2.82s-.63,3.19-1.77,4.75c-.44.61-7.87,5.64-4.99,6h10.49s-2.99,1.98-2.99,1.98c5.49.18,11.04-.21,16.54,0,1.92.08,4.01-1.03,3.45,2-16.91-.75-32.2-2.24-49-4,14.39-22.07,34.31-41.37,55.06-57.49.95-.74,1.48-2.17,1.94-2.51,1.16-.88,2.72-1.07,4-2ZM695.88,514.7v1c.65-.33.65-.67,0-1Z"/>
      </g>
    </g>
  </g>
</svg>